  0
SECTION
  2
HEADER
  9
$ACADVER
  1
AC1015
  9
$ACADMAINTVER
 70
     6
  9
$DWGCODEPAGE
  3
ANSI_1252
  9
$INSBASE
 10
0.0
 20
0.0
 30
0.0
  9
$EXTMIN
 10
-254.0
 20
-215.9
 30
0.0
  9
$EXTMAX
 10
254.0
 20
215.9
 30
0.0
  9
$LIMMIN
 10
0.0
 20
0.0
  9
$LIMMAX
 10
420.0
 20
297.0
  9
$ORTHOMODE
 70
     0
  9
$REGENMODE
 70
     1
  9
$FILLMODE
 70
     1
  9
$QTEXTMODE
 70
     0
  9
$MIRRTEXT
 70
     1
  9
$LTSCALE
 40
1.0
  9
$ATTMODE
 70
     1
  9
$TEXTSIZE
 40
3.5
  9
$TRACEWID
 40
1.0
  9
$TEXTSTYLE
  7
Standard
  9
$CLAYER
  8
0
  9
$CELTYPE
  6
ByLayer
  9
$CECOLOR
 62
   256
  9
$CELTSCALE
 40
1.0
  9
$DISPSILH
 70
     0
  9
$DIMSCALE
 40
1.0
  9
$DIMASZ
 40
3.302
  9
$DIMEXO
 40
0.0
  9
$DIMDLI
 40
3.75
  9
$DIMRND
 40
0.0
  9
$DIMDLE
 40
0.0
  9
$DIMEXE
 40
1.0
  9
$DIMTP
 40
0.0
  9
$DIMTM
 40
0.0
  9
$DIMTXT
 40
3.5
  9
$DIMCEN
 40
2.5
  9
$DIMTSZ
 40
0.0
  9
$DIMTOL
 70
     0
  9
$DIMLIM
 70
     0
  9
$DIMTIH
 70
     1
  9
$DIMTOH
 70
     1
  9
$DIMSE1
 70
     0
  9
$DIMSE2
 70
     0
  9
$DIMTAD
 70
     1
  9
$DIMZIN
 70
     1
  9
$DIMBLK
  1

  9
$DIMASO
 70
     1
  9
$DIMSHO
 70
     1
  9
$DIMPOST
  1

  9
$DIMAPOST
  1

  9
$DIMALT
 70
     0
  9
$DIMALTD
 70
     3
  9
$DIMALTF
 40
0.0393700787
  9
$DIMLFAC
 40
1.0
  9
$DIMTOFL
 70
     1
  9
$DIMTVP
 40
0.0
  9
$DIMTIX
 70
     0
  9
$DIMSOXD
 70
     0
  9
$DIMSAH
 70
     0
  9
$DIMBLK1
  1

  9
$DIMBLK2
  1

  9
$DIMSTYLE
  2
ISO-25
  9
$DIMCLRD
 70
     0
  9
$DIMCLRE
 70
     0
  9
$DIMCLRT
 70
     0
  9
$DIMTFAC
 40
1.0
  9
$DIMGAP
 40
1.524
  9
$DIMJUST
 70
     0
  9
$DIMSD1
 70
     0
  9
$DIMSD2
 70
     0
  9
$DIMTOLJ
 70
     0
  9
$DIMTZIN
 70
     1
  9
$DIMALTZ
 70
     0
  9
$DIMALTTZ
 70
     0
  9
$DIMUPT
 70
     0
  9
$DIMDEC
 70
     2
  9
$DIMTDEC
 70
     2
  9
$DIMALTU
 70
     2
  9
$DIMALTTD
 70
     3
  9
$DIMTXSTY
  7
Standard
  9
$DIMAUNIT
 70
     0
  9
$DIMADEC
 70
     2
  9
$DIMALTRND
 40
0.0
  9
$DIMAZIN
 70
     0
  9
$DIMDSEP
 70
    44
  9
$DIMATFIT
 70
     3
  9
$DIMFRAC
 70
     0
  9
$DIMLDRBLK
  1

  9
$DIMLUNIT
 70
     2
  9
$DIMLWD
 70
    -2
  9
$DIMLWE
 70
    -2
  9
$DIMTMOVE
 70
     0
  9
$LUNITS
 70
     2
  9
$LUPREC
 70
     2
  9
$SKETCHINC
 40
1.0
  9
$FILLETRAD
 40
10.0
  9
$AUNITS
 70
     0
  9
$AUPREC
 70
     2
  9
$MENU
  1
.
  9
$ELEVATION
 40
0.0
  9
$PELEVATION
 40
0.0
  9
$THICKNESS
 40
0.0
  9
$LIMCHECK
 70
     0
  9
$CHAMFERA
 40
0.0
  9
$CHAMFERB
 40
0.0
  9
$CHAMFERC
 40
0.0
  9
$CHAMFERD
 40
0.0
  9
$SKPOLY
 70
     0
  9
$TDCREATE
 40
2459627.409115254
  9
$TDUCREATE
 40
2459627.617448588
  9
$TDUPDATE
 40
2459627.409191643
  9
$TDUUPDATE
 40
2459627.617524977
  9
$TDINDWG
 40
0.0000000116
  9
$TDUSRTIMER
 40
0.0000000116
  9
$USRTIMER
 70
     1
  9
$ANGBASE
 50
0.0
  9
$ANGDIR
 70
     0
  9
$PDMODE
 70
     0
  9
$PDSIZE
 40
-1.0
  9
$PLINEWID
 40
0.0
  9
$SPLFRAME
 70
     0
  9
$SPLINETYPE
 70
     6
  9
$SPLINESEGS
 70
     8
  9
$HANDSEED
  5
100
  9
$SURFTAB1
 70
     6
  9
$SURFTAB2
 70
     6
  9
$SURFTYPE
 70
     6
  9
$SURFU
 70
     6
  9
$SURFV
 70
     6
  9
$UCSBASE
  2

  9
$UCSNAME
  2

  9
$UCSORG
 10
0.0
 20
0.0
 30
0.0
  9
$UCSXDIR
 10
1.0
 20
0.0
 30
0.0
  9
$UCSYDIR
 10
0.0
 20
1.0
 30
0.0
  9
$UCSORTHOREF
  2

  9
$UCSORTHOVIEW
 70
     0
  9
$UCSORGTOP
 10
0.0
 20
0.0
 30
0.0
  9
$UCSORGBOTTOM
 10
0.0
 20
0.0
 30
0.0
  9
$UCSORGLEFT
 10
0.0
 20
0.0
 30
0.0
  9
$UCSORGRIGHT
 10
0.0
 20
0.0
 30
0.0
  9
$UCSORGFRONT
 10
0.0
 20
0.0
 30
0.0
  9
$UCSORGBACK
 10
0.0
 20
0.0
 30
0.0
  9
$PUCSBASE
  2

  9
$PUCSNAME
  2

  9
$PUCSORG
 10
0.0
 20
0.0
 30
0.0
  9
$PUCSXDIR
 10
1.0
 20
0.0
 30
0.0
  9
$PUCSYDIR
 10
0.0
 20
1.0
 30
0.0
  9
$PUCSORTHOREF
  2

  9
$PUCSORTHOVIEW
 70
     0
  9
$PUCSORGTOP
 10
0.0
 20
0.0
 30
0.0
  9
$PUCSORGBOTTOM
 10
0.0
 20
0.0
 30
0.0
  9
$PUCSORGLEFT
 10
0.0
 20
0.0
 30
0.0
  9
$PUCSORGRIGHT
 10
0.0
 20
0.0
 30
0.0
  9
$PUCSORGFRONT
 10
0.0
 20
0.0
 30
0.0
  9
$PUCSORGBACK
 10
0.0
 20
0.0
 30
0.0
  9
$USERI1
 70
     0
  9
$USERI2
 70
     0
  9
$USERI3
 70
     0
  9
$USERI4
 70
     0
  9
$USERI5
 70
     0
  9
$USERR1
 40
0.0
  9
$USERR2
 40
0.0
  9
$USERR3
 40
0.0
  9
$USERR4
 40
0.0
  9
$USERR5
 40
0.0
  9
$WORLDVIEW
 70
     1
  9
$SHADEDGE
 70
     3
  9
$SHADEDIF
 70
    70
  9
$TILEMODE
 70
     1
  9
$MAXACTVP
 70
    64
  9
$PINSBASE
 10
0.0
 20
0.0
 30
0.0
  9
$PLIMCHECK
 70
     0
  9
$PEXTMIN
 10
1.0000000000E+20
 20
1.0000000000E+20
 30
1.0000000000E+20
  9
$PEXTMAX
 10
-1.0000000000E+20
 20
-1.0000000000E+20
 30
-1.0000000000E+20
  9
$PLIMMIN
 10
0.0
 20
0.0
  9
$PLIMMAX
 10
420.0
 20
297.0
  9
$UNITMODE
 70
     0
  9
$VISRETAIN
 70
     1
  9
$PLINEGEN
 70
     0
  9
$PSLTSCALE
 70
     1
  9
$TREEDEPTH
 70
  3020
  9
$CMLSTYLE
  2
Standard
  9
$CMLJUST
 70
     0
  9
$CMLSCALE
 40
20.0
  9
$PROXYGRAPHICS
 70
     1
  9
$MEASUREMENT
 70
     1
  9
$CELWEIGHT
370
    -1
  9
$ENDCAPS
280
     0
  9
$JOINSTYLE
280
     0
  9
$LWDISPLAY
290
     1
  9
$INSUNITS
 70
     4
  9
$HYPERLINKBASE
  1

  9
$STYLESHEET
  1

  9
$XEDIT
290
     1
  9
$CEPSNTYPE
380
     0
  9
$PSTYLEMODE
290
     1
  9
$FINGERPRINTGUID
  2
{9714edf0-4c97-40ce-98de-58a5fa5e94db}
  9
$VERSIONGUID
  2
{FAEB1C32-E019-11D5-929B-00C0DF256EC4}
  9
$EXTNAMES
290
     1
  9
$PSVPSCALE
 40
0.0
  9
$OLESTARTUP
290
     0
  0
ENDSEC
  0
SECTION
  2
CLASSES
  0
CLASS
  1
ACDBDICTIONARYWDFLT
  2
AcDbDictionaryWithDefault
  3
ObjectDBX Classes
 90
        0
280
     0
281
     0
  0
CLASS
  1
VISUALSTYLE
  2
AcDbVisualStyle
  3
ObjectDBX Classes
 90
     4095
280
     0
281
     0
  0
CLASS
  1
MATERIAL
  2
AcDbMaterial
  3
ObjectDBX Classes
 90
     1153
280
     0
281
     0
  0
CLASS
  1
SCALE
  2
AcDbScale
  3
ObjectDBX Classes
 90
     1153
280
     0
281
     0
  0
CLASS
  1
TABLESTYLE
  2
AcDbTableStyle
  3
ObjectDBX Classes
 90
     4095
280
     0
281
     0
  0
CLASS
  1
MLEADERSTYLE
  2
AcDbMLeaderStyle
  3
ACDB_MLEADERSTYLE_CLASS
 90
     4095
280
     0
281
     0
  0
CLASS
  1
SUN
  2
AcDbSun
  3
SCENEOE
 90
     1153
280
     0
281
     0
  0
CLASS
  1
ACDBPLACEHOLDER
  2
AcDbPlaceHolder
  3
ObjectDBX Classes
 90
        0
280
     0
281
     0
  0
CLASS
  1
LAYOUT
  2
AcDbLayout
  3
ObjectDBX Classes
 90
        0
280
     0
281
     0
  0
ENDSEC
  0
SECTION
  2
TABLES
  0
TABLE
  2
VPORT
  5
8
330
0
100
AcDbSymbolTable
 70
     1
  0
VPORT
  5
29
330
8
100
AcDbSymbolTableRecord
100
AcDbViewportTableRecord
  2
*Active
 70
     0
 10
0.0
 20
0.0
 11
1.0
 21
1.0
 12
0.0
 22
0.0
 13
0.0
 23
0.0
 14
10.0
 24
10.0
 15
10.0
 25
10.0
 16
0.0
 26
0.0
 36
1.0
 17
0.0
 27
0.0
 37
0.0
 40
440.436
 41
1.1764705882
 42
50.0
 43
0.0
 44
0.0
 50
0.0
 51
0.0
 71
     0
 72
   100
 73
     1
 74
     3
 75
     0
 76
     0
 77
     0
 78
     0
281
     0
 65
     1
110
0.0
120
0.0
130
0.0
111
1.0
121
0.0
131
0.0
112
0.0
122
1.0
132
0.0
 79
     0
146
0.0
  0
ENDTAB
  0
TABLE
  2
LTYPE
  5
5
330
0
100
AcDbSymbolTable
 70
     6
  0
LTYPE
  5
14
330
5
100
AcDbSymbolTableRecord
100
AcDbLinetypeTableRecord
  2
ByBlock
 70
     0
  3

 72
    65
 73
     0
 40
0.0
  0
LTYPE
  5
15
330
5
100
AcDbSymbolTableRecord
100
AcDbLinetypeTableRecord
  2
ByLayer
 70
     0
  3

 72
    65
 73
     0
 40
0.0
  0
LTYPE
  5
16
330
5
100
AcDbSymbolTableRecord
100
AcDbLinetypeTableRecord
  2
Continuous
 70
     0
  3
Solid line
 72
    65
 73
     0
 40
0.0
  0
LTYPE
  5
6E
330
5
100
AcDbSymbolTableRecord
100
AcDbLinetypeTableRecord
  2
HIDDEN
 70
     0
  3
Hidden __ __ __ __ __ __ __ __ __ __ __ __ __ __
 72
    65
 73
     2
 40
1.905
 49
1.27
 74
     0
 49
-0.635
 74
     0
  0
LTYPE
  5
6F
330
5
100
AcDbSymbolTableRecord
100
AcDbLinetypeTableRecord
  2
PHANTOM
 70
     0
  3
Phantom ______  __  __  ______  __  __  ______
 72
    65
 73
     6
 40
12.7
 49
6.35
 74
     0
 49
-1.27
 74
     0
 49
1.27
 74
     0
 49
-1.27
 74
     0
 49
1.27
 74
     0
 49
-1.27
 74
     0
  0
LTYPE
  5
70
330
5
100
AcDbSymbolTableRecord
100
AcDbLinetypeTableRecord
  2
CENTER
 70
     0
  3
Center ____ _ ____ _ ____ _ ____ _ ____ _ ____
 72
    65
 73
     4
 40
10.16
 49
6.35
 74
     0
 49
-1.27
 74
     0
 49
1.27
 74
     0
 49
-1.27
 74
     0
  0
LTYPE
  5
71
330
5
100
AcDbSymbolTableRecord
100
AcDbLinetypeTableRecord
  2
CENTERX2
 70
     0
  3
Center (2x) ________  __  ________  __  _____
 72
    65
 73
     4
 40
20.32
 49
12.7
 74
     0
 49
-2.54
 74
     0
 49
2.54
 74
     0
 49
-2.54
 74
     0
  0
LTYPE
  5
72
330
5
100
AcDbSymbolTableRecord
100
AcDbLinetypeTableRecord
  2
DOT2
 70
     0
  3
Dot (.5x) ........................................
 72
    65
 73
     2
 40
0.635
 49
0.0
 74
     0
 49
-0.635
 74
     0
  0
ENDTAB
  0
TABLE
  2
LAYER
  5
2
330
0
100
AcDbSymbolTable
 70
     1
  0
LAYER
  5
10
330
2
100
AcDbSymbolTableRecord
100
AcDbLayerTableRecord
  2
0
 70
     0
 62
     7
  6
Continuous
370
    -3
390
F
  0
ENDTAB
  0
TABLE
  2
STYLE
  5
3
330
0
100
AcDbSymbolTable
 70
     2
  0
STYLE
  5
11
330
3
100
AcDbSymbolTableRecord
100
AcDbTextStyleTableRecord
  2
Standard
 70
     0
 40
0.0
 41
1.0
 50
0.0
 71
     0
 42
3.5
  3
txt
  4

  0
STYLE
  5
FC
330
3
100
AcDbSymbolTableRecord
100
AcDbTextStyleTableRecord
  2
SLDTEXTSTYLE0
 70
     0
 40
0.0
 41
0.7
 50
0.0
 71
     0
 42
3.5
  3
TXT
  4

  0
ENDTAB
  0
TABLE
  2
VIEW
  5
6
330
0
100
AcDbSymbolTable
 70
     0
  0
ENDTAB
  0
TABLE
  2
UCS
  5
7
330
0
100
AcDbSymbolTable
 70
     0
  0
ENDTAB
  0
TABLE
  2
APPID
  5
9
330
0
100
AcDbSymbolTable
 70
     1
  0
APPID
  5
12
330
9
100
AcDbSymbolTableRecord
100
AcDbRegAppTableRecord
  2
ACAD
 70
     0
  0
ENDTAB
  0
TABLE
  2
DIMSTYLE
  5
A
330
0
100
AcDbSymbolTable
 70
     1
100
AcDbDimStyleTable
  0
DIMSTYLE
105
27
330
A
100
AcDbSymbolTableRecord
100
AcDbDimStyleTableRecord
  2
ISO-25
 70
     0
 41
2.5
 42
0.625
 43
3.75
 44
1.25
 73
     0
 74
     0
 77
     1
 78
     8
140
2.5
141
2.5
143
0.0393700787
147
0.625
171
     3
172
     1
178
     0
271
     2
272
     2
274
     3
278
    44
283
     0
284
     8
340
11
  0
ENDTAB
  0
TABLE
  2
BLOCK_RECORD
  5
1
330
0
100
AcDbSymbolTable
 70
     1
  0
BLOCK_RECORD
  5
1F
330
1
100
AcDbSymbolTableRecord
100
AcDbBlockTableRecord
  2
*Model_Space
340
22
  0
BLOCK_RECORD
  5
1B
330
1
100
AcDbSymbolTableRecord
100
AcDbBlockTableRecord
  2
*Paper_Space
340
1E
  0
BLOCK_RECORD
  5
23
330
1
100
AcDbSymbolTableRecord
100
AcDbBlockTableRecord
  2
*Paper_Space0
340
26
  0
ENDTAB
  0
ENDSEC
  0
SECTION
  2
BLOCKS
  0
BLOCK
  5
20
330
1F
100
AcDbEntity
  8
0
100
AcDbBlockBegin
  2
*Model_Space
 70
     0
 10
0.0
 20
0.0
 30
0.0
  3
*Model_Space
  1

  0
ENDBLK
  5
21
330
1F
100
AcDbEntity
  8
0
100
AcDbBlockEnd
  0
BLOCK
  5
1C
330
1B
100
AcDbEntity
 67
     1
  8
0
100
AcDbBlockBegin
  2
*Paper_Space
 70
     0
 10
0.0
 20
0.0
 30
0.0
  3
*Paper_Space
  1

  0
ENDBLK
  5
1D
330
1B
100
AcDbEntity
 67
     1
  8
0
100
AcDbBlockEnd
  0
BLOCK
  5
24
330
23
100
AcDbEntity
  8
0
100
AcDbBlockBegin
  2
*Paper_Space0
 70
     0
 10
0.0
 20
0.0
 30
0.0
  3
*Paper_Space0
  1

  0
ENDBLK
  5
25
330
23
100
AcDbEntity
  8
0
100
AcDbBlockEnd
  0
ENDSEC
  0
SECTION
  2
ENTITIES
  0
SPLINE
  5
73
330
1F
100
AcDbEntity
  8
0
  6
Continuous
 62
     7
370
    25
100
AcDbSpline
210
0.0
220
0.0
230
1.0
 70
     8
 71
     3
 72
    31
 73
    27
 74
     0
 42
0.00000001
 43
0.00000001
 40
0.0
 40
0.0
 40
0.0
 40
0.0
 40
0.0422143397476831
 40
0.0835634011107139
 40
0.1239292940748749
 40
0.163641204420557
 40
0.2028099171583781
 40
0.2414624497679403
 40
0.2798368474081713
 40
0.3180558510201644
 40
0.3559252438836303
 40
0.3930839474641415
 40
0.4298716462170858
 40
0.4665207721980421
 40
0.5030902455079111
 40
0.540107746145938
 40
0.5774852153899795
 40
0.6155231666333274
 40
0.654801877425267
 40
0.6961617316004324
 40
0.7399074552598826
 40
0.7860594871200051
 40
0.8348698835342735
 40
0.8869172751013314
 40
0.9419274874002194
 40
1.0
 40
1.0
 40
1.0
 40
1.0
 10
88.46867137941473
 20
-80.60145473418194
 30
0.0
 10
88.4075176941955
 20
-80.60072583969033
 30
0.0
 10
88.2864638068692
 20
-80.59928299104857
 30
0.0
 10
88.10737547939223
 20
-80.58521013119119
 30
0.0
 10
87.93298637377085
 20
-80.56176305887342
 30
0.0
 10
87.76319000335076
 20
-80.52981047722238
 30
0.0
 10
87.59745158475744
 20
-80.49036756746663
 30
0.0
 10
87.437156455877
 20
-80.43862627202661
 30
0.0
 10
87.28108310736947
 20
-80.37927324472986
 30
0.0
 10
87.1294388907211
 20
-80.31196077737603
 30
0.0
 10
86.9845879784829
 20
-80.23469452436342
 30
0.0
 10
86.84713277783943
 20
-80.14878096030507
 30
0.0
 10
86.71834289738739
 20
-80.05318069415256
 30
0.0
 10
86.59884323326902
 20
-79.94757522955541
 30
0.0
 10
86.48560116949577
 20
-79.83488550916519
 30
0.0
 10
86.38025103222738
 20
-79.71320803337919
 30
0.0
 10
86.28535340882404
 20
-79.58068678450192
 30
0.0
 10
86.19610083133027
 20
-79.44043067547634
 30
0.0
 10
86.11695331010802
 20
-79.28753353225483
 30
0.0
 10
86.0493747793093
 20
-79.12028476406307
 30
0.0
 10
85.99238514654459
 20
-78.93870646419188
 30
0.0
 10
85.94644960500395
 20
-78.74299925218456
 30
0.0
 10
85.90858950058815
 20
-78.53330669612261
 30
0.0
 10
85.88466297038376
 20
-78.30869349081587
 30
0.0
 10
85.86794220530328
 20
-78.07000382782286
 30
0.0
 10
85.86615633651263
 20
-77.90618515482407
 30
0.0
 10
85.86523922129507
 20
-77.82205769892553
 30
0.0
  0
SPLINE
  5
74
330
1F
100
AcDbEntity
  8
0
  6
Continuous
 62
     7
370
    25
100
AcDbSpline
210
0.0
220
0.0
230
1.0
 70
     8
 71
     3
 72
    31
 73
    27
 74
     0
 42
0.00000001
 43
0.00000001
 40
0.0
 40
0.0
 40
0.0
 40
0.0
 40
0.0584889661631842
 40
0.1136596802337424
 40
0.165913623112604
 40
0.2148626491132808
 40
0.2609024031149225
 40
0.3043625574989832
 40
0.3453546469118444
 40
0.3842572756645888
 40
0.4219130080261538
 40
0.4589046782389914
 40
0.4955334786093973
 40
0.5322310959279482
 40
0.5686754776694951
 40
0.6056141500424953
 40
0.6427275880368403
 40
0.6808805894534818
 40
0.7193751588456381
 40
0.7580174947318058
 40
0.796855213815069
 40
0.8362710130393064
 40
0.8759801718038808
 40
0.9165383932461619
 40
0.9578370844584697
 40
1.0
 40
1.0
 40
1.0
 40
1.0
 10
85.86523922129507
 20
-77.82205769892553
 30
0.0
 10
85.86632623443033
 20
-77.73723738297313
 30
0.0
 10
85.86843859122966
 20
-77.57240885853699
 30
0.0
 10
85.88276245633531
 20
-77.33209910749777
 30
0.0
 10
85.90931765079526
 20
-77.10676356541603
 30
0.0
 10
85.94524599075935
 20
-76.8962044319144
 30
0.0
 10
85.98981748328217
 20
-76.70023930016589
 30
0.0
 10
86.04755707848174
 20
-76.51982596613007
 30
0.0
 10
86.11369487910461
 20
-76.35340475263064
 30
0.0
 10
86.1918729415692
 20
-76.20158362500341
 30
0.0
 10
86.28006287020584
 20
-76.0623940487456
 30
0.0
 10
86.37382196776406
 20
-75.93084740457049
 30
0.0
 10
86.4789152835501
 20
-75.80997061227372
 30
0.0
 10
86.59072562481163
 20
-75.6965084076015
 30
0.0
 10
86.71143578600312
 20
-75.59176659303577
 30
0.0
 10
86.84059289008844
 20
-75.49663534766424
 30
0.0
 10
86.97867510325422
 20
-75.41030916364944
 30
0.0
 10
87.12410682117044
 20
-75.33212254489389
 30
0.0
 10
87.27685927361047
 20
-75.26388169268006
 30
0.0
 10
87.43374795116101
 20
-75.20306971865297
 30
0.0
 10
87.5955164431845
 20
-75.15192211155727
 30
0.0
 10
87.76176437420128
 20
-75.11125429404913
 30
0.0
 10
87.9321489498837
 20
-75.07771732055258
 30
0.0
 10
88.10704756162397
 20
-75.05483156565487
 30
0.0
 10
88.28645825980611
 20
-75.04055643275142
 30
0.0
 10
88.4075158324543
 20
-75.0391374062387
 30
0.0
 10
88.46867137941473
 20
-75.03842054614775
 30
0.0
  0
SPLINE
  5
75
330
1F
100
AcDbEntity
  8
0
  6
Continuous
 62
     7
370
    25
100
AcDbSpline
210
0.0
220
0.0
230
1.0
 70
     8
 71
     3
 72
    31
 73
    27
 74
     0
 42
0.00000001
 43
0.00000001
 40
0.0
 40
0.0
 40
0.0
 40
0.0
 40
0.04243737961866
 40
0.0837774555742933
 40
0.1243821631358016
 40
0.1646159517729767
 40
0.2038464430370882
 40
0.2429612273896417
 40
0.2818682163551083
 40
0.3204918927760854
 40
0.3586645935998156
 40
0.396584520115628
 40
0.4341928497649873
 40
0.4714784084440463
 40
0.5089784234033162
 40
0.5465774811629064
 40
0.5848095048226152
 40
0.6238581232994923
 40
0.663874680909473
 40
0.7053396707202179
 40
0.7486391688365518
 40
0.793951250532178
 40
0.8415596848374978
 40
0.8918510179400806
 40
0.9445432784968758
 40
1.0
 40
1.0
 40
1.0
 40
1.0
 10
88.46867137941473
 20
-75.03842054614775
 30
0.0
 10
88.5308860206778
 20
-75.03913415268022
 30
0.0
 10
88.65370661872893
 20
-75.04054291401539
 30
0.0
 10
88.83559942431627
 20
-75.05478127427733
 30
0.0
 10
89.01325491933589
 20
-75.07799771961506
 30
0.0
 10
89.18626652313237
 20
-75.11078292878521
 30
0.0
 10
89.35514680429343
 20
-75.15227537974219
 30
0.0
 10
89.51941776085684
 20
-75.20313942918773
 30
0.0
 10
89.67957652521397
 20
-75.26335044076974
 30
0.0
 10
89.83405299356107
 20
-75.33356513291234
 30
0.0
 10
89.9832792943169
 20
-75.41138929985628
 30
0.0
 10
90.1239721152056
 20
-75.50105366766651
 30
0.0
 10
90.25775743164021
 20
-75.59839745323437
 30
0.0
 10
90.38390746989307
 20
-75.70466405481321
 30
0.0
 10
90.50011798834164
 20
-75.8216696511526
 30
0.0
 10
90.60890701032389
 20
-75.94738186623452
 30
0.0
 10
90.70963870495889
 20
-76.08249000597755
 30
0.0
 10
90.80337848831682
 20
-76.22676611481106
 30
0.0
 10
90.88802141456458
 20
-76.38213071997164
 30
0.0
 10
90.95961169688694
 20
-76.55068345045609
 30
0.0
 10
91.02142184680953
 20
-76.73124378895082
 30
0.0
 10
91.07054847582349
 20
-76.92495004156649
 30
0.0
 10
91.11016154702408
 20
-77.13124410228001
 30
0.0
 10
91.13662834204868
 20
-77.3505044281781
 30
0.0
 10
91.15440333038205
 20
-77.58219709381521
 30
0.0
 10
91.15605760678497
 20
-77.74075318149441
 30
0.0
 10
91.15690588796174
 20
-77.82205769892553
 30
0.0
  0
SPLINE
  5
76
330
1F
100
AcDbEntity
  8
0
  6
Continuous
 62
     7
370
    25
100
AcDbSpline
210
0.0
220
0.0
230
1.0
 70
     8
 71
     3
 72
    31
 73
    27
 74
     0
 42
0.00000001
 43
0.00000001
 40
0.0
 40
0.0
 40
0.0
 40
0.0
 40
0.055253142602902
 40
0.1077405434436694
 40
0.1578266291152048
 40
0.2051855754840757
 40
0.2502348257287096
 40
0.2932577415998578
 40
0.3346560671487538
 40
0.3743729133849409
 40
0.4129843574905867
 40
0.4510494071650232
 40
0.488673948150807
 40
0.5261993792087951
 40
0.5636666162316755
 40
0.6013004353913668
 40
0.639246062606144
 40
0.6779838898305943
 40
0.7170738625741669
 40
0.7560930639526207
 40
0.7954648500515387
 40
0.8350143245364613
 40
0.8752753821212553
 40
0.9161467784809795
 40
0.9575338579226926
 40
1.0
 40
1.0
 40
1.0
 40
1.0
 10
91.15690588796174
 20
-77.82205769892553
 30
0.0
 10
91.15604984531258
 20
-77.90300766401043
 30
0.0
 10
91.15438060993729
 20
-78.06085557671062
 30
0.0
 10
91.13671838069266
 20
-78.2915087034315
 30
0.0
 10
91.1098668169471
 20
-78.50957960905332
 30
0.0
 10
91.07165044802773
 20
-78.71489876659606
 30
0.0
 10
91.02356852720418
 20
-78.90756167958358
 30
0.0
 10
90.96250527569279
 20
-79.0872699137153
 30
0.0
 10
90.89264106105738
 20
-79.25543174317365
 30
0.0
 10
90.80839403156959
 20
-79.40950250377641
 30
0.0
 10
90.71736051563389
 20
-79.55383201880504
 30
0.0
 10
90.6158560806557
 20
-79.68719650368044
 30
0.0
 10
90.50766299038442
 20
-79.8130183977813
 30
0.0
 10
90.39095133718594
 20
-79.92983175023689
 30
0.0
 10
90.26555446656484
 20
-80.03732159675647
 30
0.0
 10
90.13135106571733
 20
-80.13454669839358
 30
0.0
 10
89.99000384147203
 20
-80.22458763933923
 30
0.0
 10
89.83964335808497
 20
-80.30344733729312
 30
0.0
 10
89.68297175970848
 20
-80.37248730833194
 30
0.0
 10
89.52261651883369
 20
-80.43529136963197
 30
0.0
 10
89.35703596828833
 20
-80.48502503916811
 30
0.0
 10
89.18783435134159
 20
-80.52825192765211
 30
0.0
 10
89.01395908428299
 20
-80.56093145761119
 30
0.0
 10
88.8358912909027
 20
-80.58360611573231
 30
0.0
 10
88.65376372132837
 20
-80.59970890663263
 30
0.0
 10
88.53089586713654
 20
-80.60086782051611
 30
0.0
 10
88.46867137941473
 20
-80.60145473418194
 30
0.0
  0
LINE
  5
77
330
1F
100
AcDbEntity
  8
0
  6
Continuous
 62
     7
370
    25
100
AcDbLine
 10
101.6391124184
 20
-80.4657709735
 30
0.0
 11
100.885431529
 21
-80.4657709735
 31
0.0
  0
LINE
  5
78
330
1F
100
AcDbEntity
  8
0
  6
Continuous
 62
     7
370
    25
100
AcDbLine
 10
100.885431529
 20
-80.4657709735
 30
0.0
 11
101.96136135
 21
-75.1741043068
 31
0.0
  0
LINE
  5
79
330
1F
100
AcDbEntity
  8
0
  6
Continuous
 62
     7
370
    25
100
AcDbLine
 10
101.96136135
 20
-75.1741043068
 30
0.0
 11
102.1394462859
 21
-75.1741043068
 31
0.0
  0
LINE
  5
7A
330
1F
100
AcDbEntity
  8
0
  6
Continuous
 62
     7
370
    25
100
AcDbLine
 10
102.1394462859
 20
-75.1741043068
 30
0.0
 11
105.3290746914
 21
-79.5159846487
 31
0.0
  0
LINE
  5
7B
330
1F
100
AcDbEntity
  8
0
  6
Continuous
 62
     7
370
    25
100
AcDbLine
 10
105.3290746914
 20
-79.5159846487
 30
0.0
 11
108.5091628324
 21
-75.1741043068
 31
0.0
  0
LINE
  5
7C
330
1F
100
AcDbEntity
  8
0
  6
Continuous
 62
     7
370
    25
100
AcDbLine
 10
108.5091628324
 20
-75.1741043068
 30
0.0
 11
108.6936079446
 21
-75.1741043068
 31
0.0
  0
LINE
  5
7D
330
1F
100
AcDbEntity
  8
0
  6
Continuous
 62
     7
370
    25
100
AcDbLine
 10
108.6936079446
 20
-75.1741043068
 30
0.0
 11
109.7727178538
 21
-80.4657709735
 31
0.0
  0
LINE
  5
7E
330
1F
100
AcDbEntity
  8
0
  6
Continuous
 62
     7
370
    25
100
AcDbLine
 10
109.7727178538
 20
-80.4657709735
 30
0.0
 11
109.0211570231
 21
-80.4657709735
 31
0.0
  0
LINE
  5
7F
330
1F
100
AcDbEntity
  8
0
  6
Continuous
 62
     7
370
    25
100
AcDbLine
 10
109.0211570231
 20
-80.4657709735
 30
0.0
 11
108.2462755461
 21
-76.6666256744
 31
0.0
  0
LINE
  5
80
330
1F
100
AcDbEntity
  8
0
  6
Continuous
 62
     7
370
    25
100
AcDbLine
 10
108.2462755461
 20
-76.6666256744
 30
0.0
 11
105.4636984227
 21
-80.4657709735
 31
0.0
  0
LINE
  5
81
330
1F
100
AcDbEntity
  8
0
  6
Continuous
 62
     7
370
    25
100
AcDbLine
 10
105.4636984227
 20
-80.4657709735
 30
0.0
 11
105.2029311951
 21
-80.4657709735
 31
0.0
  0
LINE
  5
82
330
1F
100
AcDbEntity
  8
0
  6
Continuous
 62
     7
370
    25
100
AcDbLine
 10
105.2029311951
 20
-80.4657709735
 30
0.0
 11
102.4118738367
 21
-76.6666256744
 31
0.0
  0
LINE
  5
83
330
1F
100
AcDbEntity
  8
0
  6
Continuous
 62
     7
370
    25
100
AcDbLine
 10
102.4118738367
 20
-76.6666256744
 30
0.0
 11
101.6391124184
 21
-80.4657709735
 31
0.0
  0
SPLINE
  5
84
330
1F
100
AcDbEntity
  8
0
  6
Continuous
 62
     7
370
    25
100
AcDbSpline
210
0.0
220
0.0
230
1.0
 70
     8
 71
     3
 72
    31
 73
    27
 74
     0
 42
0.00000001
 43
0.00000001
 40
0.0
 40
0.0
 40
0.0
 40
0.0
 40
0.0422143397476814
 40
0.0835634011107152
 40
0.1239292940748764
 40
0.1636412044205563
 40
0.2028099171583788
 40
0.2414624497679393
 40
0.2798368474081689
 40
0.3180558510201633
 40
0.3559252438836319
 40
0.3930839474641399
 40
0.4298716462170842
 40
0.4665207721980414
 40
0.5030902455079127
 40
0.5401077461459325
 40
0.5774852153899758
 40
0.6155231666333262
 40
0.6548018774252663
 40
0.6961617316004296
 40
0.7399074552598801
 40
0.7860594871200057
 40
0.8348698835342679
 40
0.8869172751013255
 40
0.9419274874002133
 40
1.0
 40
1.0
 40
1.0
 40
1.0
 10
58.5413938562039
 20
-157.5782102705804
 30
0.0
 10
58.48024017098469
 20
-157.5774813760889
 30
0.0
 10
58.35918628365836
 20
-157.5760385274471
 30
0.0
 10
58.18009795618137
 20
-157.5619656675896
 30
0.0
 10
58.00570885056005
 20
-157.538518595272
 30
0.0
 10
57.83591248013989
 20
-157.5065660136208
 30
0.0
 10
57.67017406154665
 20
-157.4671231038652
 30
0.0
 10
57.50987893266615
 20
-157.415381808425
 30
0.0
 10
57.35380558415866
 20
-157.3560287811284
 30
0.0
 10
57.20216136751026
 20
-157.2887163137745
 30
0.0
 10
57.05731045527207
 20
-157.2114500607619
 30
0.0
 10
56.91985525462862
 20
-157.1255364967036
 30
0.0
 10
56.79106537417656
 20
-157.029936230551
 30
0.0
 10
56.67156571005817
 20
-156.9243307659539
 30
0.0
 10
56.55832364628494
 20
-156.8116410455636
 30
0.0
 10
56.45297350901653
 20
-156.6899635697777
 30
0.0
 10
56.3580758856132
 20
-156.5574423209004
 30
0.0
 10
56.26882330811942
 20
-156.4171862118748
 30
0.0
 10
56.18967578689718
 20
-156.2642890686533
 30
0.0
 10
56.12209725609849
 20
-156.0970403004615
 30
0.0
 10
56.06510762333375
 20
-155.9154620005903
 30
0.0
 10
56.01917208179312
 20
-155.7197547885831
 30
0.0
 10
55.98131197737732
 20
-155.5100622325211
 30
0.0
 10
55.95738544717294
 20
-155.2854490272144
 30
0.0
 10
55.94066468209244
 20
-155.0467593642213
 30
0.0
 10
55.93887881330181
 20
-154.8829406912226
 30
0.0
 10
55.93796169808424
 20
-154.798813235324
 30
0.0
  0
SPLINE
  5
85
330
1F
100
AcDbEntity
  8
0
  6
Continuous
 62
     7
370
    25
100
AcDbSpline
210
0.0
220
0.0
230
1.0
 70
     8
 71
     3
 72
    31
 73
    27
 74
     0
 42
0.00000001
 43
0.00000001
 40
0.0
 40
0.0
 40
0.0
 40
0.0
 40
0.0584889661631843
 40
0.1136596802337364
 40
0.1659136231126043
 40
0.2148626491132784
 40
0.2609024031149171
 40
0.3043625574989804
 40
0.3453546469118388
 40
0.3842572756645868
 40
0.4219130080261493
 40
0.4589046782389886
 40
0.4955334786093946
 40
0.5322310959279455
 40
0.5686754776694959
 40
0.6056141500424936
 40
0.6427275880368392
 40
0.6808805894534823
 40
0.7193751588456357
 40
0.758017494731805
 40
0.7968552138150667
 40
0.8362710130393066
 40
0.8759801718038782
 40
0.9165383932461602
 40
0.9578370844584713
 40
1.0
 40
1.0
 40
1.0
 40
1.0
 10
55.93796169808424
 20
-154.798813235324
 30
0.0
 10
55.93904871121949
 20
-154.7139929193716
 30
0.0
 10
55.94116106801884
 20
-154.5491643949355
 30
0.0
 10
55.95548493312449
 20
-154.3088546438962
 30
0.0
 10
55.98204012758443
 20
-154.0835191018145
 30
0.0
 10
56.0179684675485
 20
-153.8729599683128
 30
0.0
 10
56.06253996007136
 20
-153.6769948365645
 30
0.0
 10
56.12027955527089
 20
-153.4965815025285
 30
0.0
 10
56.18641735589379
 20
-153.3301602890291
 30
0.0
 10
56.26459541835835
 20
-153.1783391614019
 30
0.0
 10
56.35278534699503
 20
-153.0391495851441
 30
0.0
 10
56.4465444445532
 20
-152.907602940969
 30
0.0
 10
56.55163776033925
 20
-152.7867261486722
 30
0.0
 10
56.66344810160079
 20
-152.673263944
 30
0.0
 10
56.78415826279231
 20
-152.5685221294342
 30
0.0
 10
56.91331536687764
 20
-152.4733908840628
 30
0.0
 10
57.05139758004336
 20
-152.3870647000479
 30
0.0
 10
57.1968292979596
 20
-152.3088780812924
 30
0.0
 10
57.34958175039964
 20
-152.2406372290785
 30
0.0
 10
57.50647042795017
 20
-152.1798252550515
 30
0.0
 10
57.66823891997366
 20
-152.1286776479557
 30
0.0
 10
57.83448685099039
 20
-152.0880098304476
 30
0.0
 10
58.00487142667291
 20
-152.0544728569511
 30
0.0
 10
58.1797700384131
 20
-152.0315871020533
 30
0.0
 10
58.35918073659529
 20
-152.0173119691499
 30
0.0
 10
58.48023830924347
 20
-152.0158929426372
 30
0.0
 10
58.5413938562039
 20
-152.0151760825462
 30
0.0
  0
SPLINE
  5
86
330
1F
100
AcDbEntity
  8
0
  6
Continuous
 62
     7
370
    25
100
AcDbSpline
210
0.0
220
0.0
230
1.0
 70
     8
 71
     3
 72
    31
 73
    27
 74
     0
 42
0.00000001
 43
0.00000001
 40
0.0
 40
0.0
 40
0.0
 40
0.0
 40
0.0424373796186617
 40
0.0837774555742937
 40
0.1243821631358025
 40
0.1646159517729766
 40
0.2038464430370906
 40
0.2429612273896412
 40
0.281868216355108
 40
0.3204918927760839
 40
0.3586645935998172
 40
0.3965845201156277
 40
0.4341928497649872
 40
0.4714784084440472
 40
0.5089784234033183
 40
0.5465774811629063
 40
0.5848095048226193
 40
0.6238581232994921
 40
0.663874680909475
 40
0.7053396707202206
 40
0.7486391688365537
 40
0.7939512505321838
 40
0.8415596848375002
 40
0.8918510179400804
 40
0.9445432784968788
 40
1.0
 40
1.0
 40
1.0
 40
1.0
 10
58.5413938562039
 20
-152.0151760825462
 30
0.0
 10
58.60360849746696
 20
-152.0158896890787
 30
0.0
 10
58.72642909551809
 20
-152.0172984504139
 30
0.0
 10
58.90832190110545
 20
-152.0315368106758
 30
0.0
 10
59.0859773961251
 20
-152.0547532560135
 30
0.0
 10
59.25898899992156
 20
-152.0875384651837
 30
0.0
 10
59.42786928108257
 20
-152.1290309161407
 30
0.0
 10
59.592140237646
 20
-152.1798949655862
 30
0.0
 10
59.75229900200313
 20
-152.2401059771682
 30
0.0
 10
59.90677547035023
 20
-152.3103206693108
 30
0.0
 10
60.05600177110604
 20
-152.3881448362548
 30
0.0
 10
60.19669459199481
 20
-152.477809204065
 30
0.0
 10
60.33047990842941
 20
-152.5751529896328
 30
0.0
 10
60.45662994668217
 20
-152.6814195912117
 30
0.0
 10
60.57284046513085
 20
-152.7984251875511
 30
0.0
 10
60.68162948711301
 20
-152.9241374026329
 30
0.0
 10
60.78236118174807
 20
-153.0592455423761
 30
0.0
 10
60.87610096510601
 20
-153.2035216512095
 30
0.0
 10
60.96074389135374
 20
-153.3588862563701
 30
0.0
 10
61.03233417367611
 20
-153.5274389868545
 30
0.0
 10
61.09414432359867
 20
-153.7079993253493
 30
0.0
 10
61.14327095261264
 20
-153.9017055779649
 30
0.0
 10
61.18288402381326
 20
-154.1079996386786
 30
0.0
 10
61.20935081883782
 20
-154.3272599645765
 30
0.0
 10
61.22712580717122
 20
-154.5589526302137
 30
0.0
 10
61.22878008357416
 20
-154.7175087178929
 30
0.0
 10
61.22962836475092
 20
-154.798813235324
 30
0.0
  0
SPLINE
  5
87
330
1F
100
AcDbEntity
  8
0
  6
Continuous
 62
     7
370
    25
100
AcDbSpline
210
0.0
220
0.0
230
1.0
 70
     8
 71
     3
 72
    31
 73
    27
 74
     0
 42
0.00000001
 43
0.00000001
 40
0.0
 40
0.0
 40
0.0
 40
0.0
 40
0.055253142602902
 40
0.1077405434436753
 40
0.157826629115211
 40
0.2051855754840751
 40
0.2502348257287157
 40
0.2932577415998599
 40
0.3346560671487571
 40
0.3743729133849426
 40
0.4129843574905855
 40
0.451049407165023
 40
0.4886739481508067
 40
0.5261993792087959
 40
0.5636666162316772
 40
0.6013004353913705
 40
0.6392460626061462
 40
0.6779838898305935
 40
0.7170738625741702
 40
0.7560930639526215
 40
0.7954648500515389
 40
0.8350143245364615
 40
0.8752753821212569
 40
0.9161467784809791
 40
0.9575338579226911
 40
1.0
 40
1.0
 40
1.0
 40
1.0
 10
61.22962836475091
 20
-154.798813235324
 30
0.0
 10
61.22877232210175
 20
-154.8797632004089
 30
0.0
 10
61.2271030867264
 20
-155.0376111131091
 30
0.0
 10
61.20944085748187
 20
-155.26826423983
 30
0.0
 10
61.18258929373624
 20
-155.4863351454518
 30
0.0
 10
61.14437292481691
 20
-155.6916543029945
 30
0.0
 10
61.09629100399334
 20
-155.8843172159821
 30
0.0
 10
61.03522775248196
 20
-156.0640254501137
 30
0.0
 10
60.96536353784655
 20
-156.2321872795721
 30
0.0
 10
60.88111650835879
 20
-156.3862580401749
 30
0.0
 10
60.79008299242304
 20
-156.5305875552035
 30
0.0
 10
60.68857855744488
 20
-156.663952040079
 30
0.0
 10
60.58038546717356
 20
-156.7897739341797
 30
0.0
 10
60.46367381397513
 20
-156.9065872866354
 30
0.0
 10
60.33827694335398
 20
-157.0140771331549
 30
0.0
 10
60.20407354250649
 20
-157.111302234792
 30
0.0
 10
60.06272631826123
 20
-157.2013431757378
 30
0.0
 10
59.91236583487407
 20
-157.2802028736915
 30
0.0
 10
59.75569423649766
 20
-157.3492428447305
 30
0.0
 10
59.59533899562283
 20
-157.4120469060304
 30
0.0
 10
59.4297584450775
 20
-157.4617805755666
 30
0.0
 10
59.26055682813074
 20
-157.5050074640505
 30
0.0
 10
59.08668156107215
 20
-157.5376869940097
 30
0.0
 10
58.90861376769184
 20
-157.5603616521308
 30
0.0
 10
58.72648619811755
 20
-157.5764644430311
 30
0.0
 10
58.60361834392571
 20
-157.5776233569146
 30
0.0
 10
58.54139385620391
 20
-157.5782102705805
 30
0.0
  0
LINE
  5
88
330
1F
100
AcDbEntity
  8
0
  6
Continuous
 62
     7
370
    25
100
AcDbLine
 10
71.7118348952
 20
-157.4425265099
 30
0.0
 11
70.9581540058
 21
-157.4425265099
 31
0.0
  0
LINE
  5
89
330
1F
100
AcDbEntity
  8
0
  6
Continuous
 62
     7
370
    25
100
AcDbLine
 10
70.9581540058
 20
-157.4425265099
 30
0.0
 11
72.0340838268
 21
-152.1508598432
 31
0.0
  0
LINE
  5
8A
330
1F
100
AcDbEntity
  8
0
  6
Continuous
 62
     7
370
    25
100
AcDbLine
 10
72.0340838268
 20
-152.1508598432
 30
0.0
 11
72.2121687627
 21
-152.1508598432
 31
0.0
  0
LINE
  5
8B
330
1F
100
AcDbEntity
  8
0
  6
Continuous
 62
     7
370
    25
100
AcDbLine
 10
72.2121687627
 20
-152.1508598432
 30
0.0
 11
75.4017971682
 21
-156.4927401851
 31
0.0
  0
LINE
  5
8C
330
1F
100
AcDbEntity
  8
0
  6
Continuous
 62
     7
370
    25
100
AcDbLine
 10
75.4017971682
 20
-156.4927401851
 30
0.0
 11
78.5818853092
 21
-152.1508598432
 31
0.0
  0
LINE
  5
8D
330
1F
100
AcDbEntity
  8
0
  6
Continuous
 62
     7
370
    25
100
AcDbLine
 10
78.5818853092
 20
-152.1508598432
 30
0.0
 11
78.7663304214
 21
-152.1508598432
 31
0.0
  0
LINE
  5
8E
330
1F
100
AcDbEntity
  8
0
  6
Continuous
 62
     7
370
    25
100
AcDbLine
 10
78.7663304214
 20
-152.1508598432
 30
0.0
 11
79.8454403306
 21
-157.4425265099
 31
0.0
  0
LINE
  5
8F
330
1F
100
AcDbEntity
  8
0
  6
Continuous
 62
     7
370
    25
100
AcDbLine
 10
79.8454403306
 20
-157.4425265099
 30
0.0
 11
79.0938794999
 21
-157.4425265099
 31
0.0
  0
LINE
  5
90
330
1F
100
AcDbEntity
  8
0
  6
Continuous
 62
     7
370
    25
100
AcDbLine
 10
79.0938794999
 20
-157.4425265099
 30
0.0
 11
78.3189980229
 21
-153.6433812108
 31
0.0
  0
LINE
  5
91
330
1F
100
AcDbEntity
  8
0
  6
Continuous
 62
     7
370
    25
100
AcDbLine
 10
78.3189980229
 20
-153.6433812108
 30
0.0
 11
75.5364208995
 21
-157.4425265099
 31
0.0
  0
LINE
  5
92
330
1F
100
AcDbEntity
  8
0
  6
Continuous
 62
     7
370
    25
100
AcDbLine
 10
75.5364208995
 20
-157.4425265099
 30
0.0
 11
75.2756536719
 21
-157.4425265099
 31
0.0
  0
LINE
  5
93
330
1F
100
AcDbEntity
  8
0
  6
Continuous
 62
     7
370
    25
100
AcDbLine
 10
75.2756536719
 20
-157.4425265099
 30
0.0
 11
72.4845963135
 21
-153.6433812108
 31
0.0
  0
LINE
  5
94
330
1F
100
AcDbEntity
  8
0
  6
Continuous
 62
     7
370
    25
100
AcDbLine
 10
72.4845963135
 20
-153.6433812108
 30
0.0
 11
71.7118348952
 21
-157.4425265099
 31
0.0
  0
LINE
  5
95
330
1F
100
AcDbEntity
  8
0
  6
Continuous
 62
     7
370
    25
100
AcDbLine
 10
106.0
 20
-85.4346876043
 30
0.0
 11
39.5875828536
 21
-85.4346876043
 31
0.0
  0
LINE
  5
96
330
1F
100
AcDbEntity
  8
0
  6
Continuous
 62
     7
370
    25
100
AcDbLine
 10
106.0
 20
-89.2897301423
 30
0.0
 11
106.0
 21
-85.4346876043
 31
0.0
  0
LINE
  5
97
330
1F
100
AcDbEntity
  8
0
  6
Continuous
 62
     7
370
    25
100
AcDbLine
 10
39.5875828536
 20
-89.2897301423
 30
0.0
 11
106.0
 21
-89.2897301423
 31
0.0
  0
LINE
  5
98
330
1F
100
AcDbEntity
  8
0
  6
Continuous
 62
     7
370
    25
100
AcDbLine
 10
39.5875828536
 20
-92.9425561884
 30
0.0
 11
39.5875828536
 21
-89.2897301423
 31
0.0
  0
LINE
  5
99
330
1F
100
AcDbEntity
  8
0
  6
Continuous
 62
     7
370
    25
100
AcDbLine
 10
33.1815498066
 20
-87.3622088733
 30
0.0
 11
39.5875828536
 21
-92.9425561884
 31
0.0
  0
LINE
  5
9A
330
1F
100
AcDbEntity
  8
0
  6
Continuous
 62
     7
370
    25
100
AcDbLine
 10
39.5875828536
 20
-81.7818615582
 30
0.0
 11
33.1815498066
 21
-87.3622088733
 31
0.0
  0
LINE
  5
9B
330
1F
100
AcDbEntity
  8
0
  6
Continuous
 62
     7
370
    25
100
AcDbLine
 10
39.5875828536
 20
-85.4346876043
 30
0.0
 11
39.5875828536
 21
-81.7818615582
 31
0.0
  0
CIRCLE
  5
9C
330
1F
100
AcDbEntity
  8
0
  6
Continuous
 62
     7
370
    25
100
AcDbCircle
 10
-94.0
 20
-50.0
 30
0.0
 40
2.5
  0
CIRCLE
  5
9D
330
1F
100
AcDbEntity
  8
0
  6
Continuous
 62
     7
370
    25
100
AcDbCircle
 10
-144.0
 20
-50.0
 30
0.0
 40
2.5
  0
CIRCLE
  5
9E
330
1F
100
AcDbEntity
  8
0
  6
Continuous
 62
     7
370
    25
100
AcDbCircle
 10
-194.0
 20
-50.0
 30
0.0
 40
2.5
  0
CIRCLE
  5
9F
330
1F
100
AcDbEntity
  8
0
  6
Continuous
 62
     7
370
    25
100
AcDbCircle
 10
-44.0
 20
-100.0
 30
0.0
 40
2.5
  0
CIRCLE
  5
A0
330
1F
100
AcDbEntity
  8
0
  6
Continuous
 62
     7
370
    25
100
AcDbCircle
 10
-44.0
 20
-50.0
 30
0.0
 40
2.5
  0
CIRCLE
  5
A1
330
1F
100
AcDbEntity
  8
0
  6
Continuous
 62
     7
370
    25
100
AcDbCircle
 10
-194.0
 20
-150.0
 30
0.0
 40
2.5
  0
CIRCLE
  5
A2
330
1F
100
AcDbEntity
  8
0
  6
Continuous
 62
     7
370
    25
100
AcDbCircle
 10
-144.0
 20
-150.0
 30
0.0
 40
2.5
  0
CIRCLE
  5
A3
330
1F
100
AcDbEntity
  8
0
  6
Continuous
 62
     7
370
    25
100
AcDbCircle
 10
-94.0
 20
-150.0
 30
0.0
 40
2.5
  0
CIRCLE
  5
A4
330
1F
100
AcDbEntity
  8
0
  6
Continuous
 62
     7
370
    25
100
AcDbCircle
 10
-94.0
 20
-100.0
 30
0.0
 40
2.5
  0
CIRCLE
  5
A5
330
1F
100
AcDbEntity
  8
0
  6
Continuous
 62
     7
370
    25
100
AcDbCircle
 10
-144.0
 20
-100.0
 30
0.0
 40
2.5
  0
CIRCLE
  5
A6
330
1F
100
AcDbEntity
  8
0
  6
Continuous
 62
     7
370
    25
100
AcDbCircle
 10
-194.0
 20
-100.0
 30
0.0
 40
2.5
  0
CIRCLE
  5
A7
330
1F
100
AcDbEntity
  8
0
  6
Continuous
 62
     7
370
    25
100
AcDbCircle
 10
-44.0
 20
-150.0
 30
0.0
 40
2.5
  0
CIRCLE
  5
A8
330
1F
100
AcDbEntity
  8
0
  6
Continuous
 62
     7
370
    25
100
AcDbCircle
 10
-194.0
 20
150.0
 30
0.0
 40
2.5
  0
CIRCLE
  5
A9
330
1F
100
AcDbEntity
  8
0
  6
Continuous
 62
     7
370
    25
100
AcDbCircle
 10
-194.0
 20
100.0
 30
0.0
 40
2.5
  0
CIRCLE
  5
AA
330
1F
100
AcDbEntity
  8
0
  6
Continuous
 62
     7
370
    25
100
AcDbCircle
 10
-194.0
 20
50.0
 30
0.0
 40
2.5
  0
CIRCLE
  5
AB
330
1F
100
AcDbEntity
  8
0
  6
Continuous
 62
     7
370
    25
100
AcDbCircle
 10
-194.0
 20
0.0
 30
0.0
 40
2.500000000000002
  0
CIRCLE
  5
AC
330
1F
100
AcDbEntity
  8
0
  6
Continuous
 62
     7
370
    25
100
AcDbCircle
 10
-144.0
 20
150.0
 30
0.0
 40
2.5
  0
CIRCLE
  5
AD
330
1F
100
AcDbEntity
  8
0
  6
Continuous
 62
     7
370
    25
100
AcDbCircle
 10
-144.0
 20
100.0
 30
0.0
 40
2.5
  0
CIRCLE
  5
AE
330
1F
100
AcDbEntity
  8
0
  6
Continuous
 62
     7
370
    25
100
AcDbCircle
 10
-144.0
 20
50.0
 30
0.0
 40
2.5
  0
CIRCLE
  5
AF
330
1F
100
AcDbEntity
  8
0
  6
Continuous
 62
     7
370
    25
100
AcDbCircle
 10
-144.0
 20
0.0
 30
0.0
 40
2.500000000000002
  0
CIRCLE
  5
B0
330
1F
100
AcDbEntity
  8
0
  6
Continuous
 62
     7
370
    25
100
AcDbCircle
 10
-94.0
 20
150.0
 30
0.0
 40
2.5
  0
CIRCLE
  5
B1
330
1F
100
AcDbEntity
  8
0
  6
Continuous
 62
     7
370
    25
100
AcDbCircle
 10
-94.0
 20
100.0
 30
0.0
 40
2.5
  0
CIRCLE
  5
B2
330
1F
100
AcDbEntity
  8
0
  6
Continuous
 62
     7
370
    25
100
AcDbCircle
 10
-94.0
 20
50.0
 30
0.0
 40
2.5
  0
CIRCLE
  5
B3
330
1F
100
AcDbEntity
  8
0
  6
Continuous
 62
     7
370
    25
100
AcDbCircle
 10
-94.0
 20
0.0
 30
0.0
 40
2.500000000000002
  0
CIRCLE
  5
B4
330
1F
100
AcDbEntity
  8
0
  6
Continuous
 62
     7
370
    25
100
AcDbCircle
 10
-44.0
 20
150.0
 30
0.0
 40
2.5
  0
CIRCLE
  5
B5
330
1F
100
AcDbEntity
  8
0
  6
Continuous
 62
     7
370
    25
100
AcDbCircle
 10
-44.0
 20
100.0
 30
0.0
 40
2.5
  0
LINE
  5
B6
330
1F
100
AcDbEntity
  8
0
  6
Continuous
 62
     7
370
    25
100
AcDbLine
 10
-254.0
 20
-215.9
 30
0.0
 11
-254.0
 21
215.9
 31
0.0
  0
LINE
  5
B7
330
1F
100
AcDbEntity
  8
0
  6
Continuous
 62
     7
370
    25
100
AcDbLine
 10
-254.0
 20
-215.9
 30
0.0
 11
254.0
 21
-215.9
 31
0.0
  0
LINE
  5
B8
330
1F
100
AcDbEntity
  8
0
  6
Continuous
 62
     7
370
    25
100
AcDbLine
 10
254.0
 20
-215.9
 30
0.0
 11
254.0
 21
215.9
 31
0.0
  0
LINE
  5
B9
330
1F
100
AcDbEntity
  8
0
  6
Continuous
 62
     7
370
    25
100
AcDbLine
 10
-254.0
 20
215.9
 30
0.0
 11
254.0
 21
215.9
 31
0.0
  0
CIRCLE
  5
BA
330
1F
100
AcDbEntity
  8
0
  6
Continuous
 62
     7
370
    25
100
AcDbCircle
 10
180.9361157456
 20
32.4307401439
 30
0.0
 40
2.250000000000007
  0
CIRCLE
  5
BB
330
1F
100
AcDbEntity
  8
0
  6
Continuous
 62
     7
370
    25
100
AcDbCircle
 10
52.8129166687
 20
0.0
 30
0.0
 40
2.249999999999996
  0
CIRCLE
  5
BC
330
1F
100
AcDbEntity
  8
0
  6
Continuous
 62
     7
370
    25
100
AcDbCircle
 10
106.0
 20
0.0
 30
0.0
 40
8.650000000000004
  0
CIRCLE
  5
BD
330
1F
100
AcDbEntity
  8
0
  6
Continuous
 62
     7
370
    25
100
AcDbCircle
 10
180.9361157456
 20
-32.4307401439
 30
0.0
 40
2.250000000000014
  0
CIRCLE
  5
BE
330
1F
100
AcDbEntity
  8
0
  6
Continuous
 62
     7
370
    25
100
AcDbCircle
 10
-44.0
 20
0.0
 30
0.0
 40
2.500000000000002
  0
CIRCLE
  5
BF
330
1F
100
AcDbEntity
  8
0
  6
Continuous
 62
     7
370
    25
100
AcDbCircle
 10
-44.0
 20
50.0
 30
0.0
 40
2.5
  0
LINE
  5
C0
330
1F
100
AcDbEntity
  8
0
  6
Continuous
 62
     7
370
    25
100
AcDbLine
 10
76.3402392213
 20
-75.7168393496
 30
0.0
 11
76.8055921193
 21
-75.1741043068
 31
0.0
  0
LINE
  5
C1
330
1F
100
AcDbEntity
  8
0
  6
Continuous
 62
     7
370
    25
100
AcDbLine
 10
76.8055921193
 20
-75.1741043068
 30
0.0
 11
78.3076537512
 21
-75.1741043068
 31
0.0
  0
LINE
  5
C2
330
1F
100
AcDbEntity
  8
0
  6
Continuous
 62
     7
370
    25
100
AcDbLine
 10
78.3076537512
 20
-75.1741043068
 30
0.0
 11
78.3076537512
 21
-80.4657709735
 31
0.0
  0
LINE
  5
C3
330
1F
100
AcDbEntity
  8
0
  6
Continuous
 62
     7
370
    25
100
AcDbLine
 10
78.3076537512
 20
-80.4657709735
 30
0.0
 11
77.5613930674
 21
-80.4657709735
 31
0.0
  0
LINE
  5
C4
330
1F
100
AcDbEntity
  8
0
  6
Continuous
 62
     7
370
    25
100
AcDbLine
 10
77.5613930674
 20
-80.4657709735
 30
0.0
 11
77.5613930674
 21
-75.7168393496
 31
0.0
  0
LINE
  5
C5
330
1F
100
AcDbEntity
  8
0
  6
Continuous
 62
     7
370
    25
100
AcDbLine
 10
77.5613930674
 20
-75.7168393496
 30
0.0
 11
76.3402392213
 21
-75.7168393496
 31
0.0
  0
LINE
  5
C6
330
1F
100
AcDbEntity
  8
0
  6
Continuous
 62
     7
370
    25
100
AcDbLine
 10
62.336087032
 20
-157.4425265099
 30
0.0
 11
61.5824061425
 21
-157.4425265099
 31
0.0
  0
LINE
  5
C7
330
1F
100
AcDbEntity
  8
0
  6
Continuous
 62
     7
370
    25
100
AcDbLine
 10
61.5824061425
 20
-157.4425265099
 30
0.0
 11
62.6583359636
 21
-152.1508598432
 31
0.0
  0
LINE
  5
C8
330
1F
100
AcDbEntity
  8
0
  6
Continuous
 62
     7
370
    25
100
AcDbLine
 10
62.6583359636
 20
-152.1508598432
 30
0.0
 11
62.8364208995
 21
-152.1508598432
 31
0.0
  0
LINE
  5
C9
330
1F
100
AcDbEntity
  8
0
  6
Continuous
 62
     7
370
    25
100
AcDbLine
 10
62.8364208995
 20
-152.1508598432
 30
0.0
 11
66.0260493049
 21
-156.4927401851
 31
0.0
  0
LINE
  5
CA
330
1F
100
AcDbEntity
  8
0
  6
Continuous
 62
     7
370
    25
100
AcDbLine
 10
66.0260493049
 20
-156.4927401851
 30
0.0
 11
69.2061374459
 21
-152.1508598432
 31
0.0
  0
LINE
  5
CB
330
1F
100
AcDbEntity
  8
0
  6
Continuous
 62
     7
370
    25
100
AcDbLine
 10
69.2061374459
 20
-152.1508598432
 30
0.0
 11
69.3905825581
 21
-152.1508598432
 31
0.0
  0
LINE
  5
CC
330
1F
100
AcDbEntity
  8
0
  6
Continuous
 62
     7
370
    25
100
AcDbLine
 10
69.3905825581
 20
-152.1508598432
 30
0.0
 11
70.4696924673
 21
-157.4425265099
 31
0.0
  0
LINE
  5
CD
330
1F
100
AcDbEntity
  8
0
  6
Continuous
 62
     7
370
    25
100
AcDbLine
 10
70.4696924673
 20
-157.4425265099
 30
0.0
 11
69.7181316367
 21
-157.4425265099
 31
0.0
  0
LINE
  5
CE
330
1F
100
AcDbEntity
  8
0
  6
Continuous
 62
     7
370
    25
100
AcDbLine
 10
69.7181316367
 20
-157.4425265099
 30
0.0
 11
68.9432501596
 21
-153.6433812108
 31
0.0
  0
LINE
  5
CF
330
1F
100
AcDbEntity
  8
0
  6
Continuous
 62
     7
370
    25
100
AcDbLine
 10
68.9432501596
 20
-153.6433812108
 30
0.0
 11
66.1606730362
 21
-157.4425265099
 31
0.0
  0
LINE
  5
D0
330
1F
100
AcDbEntity
  8
0
  6
Continuous
 62
     7
370
    25
100
AcDbLine
 10
66.1606730362
 20
-157.4425265099
 30
0.0
 11
65.8999058087
 21
-157.4425265099
 31
0.0
  0
LINE
  5
D1
330
1F
100
AcDbEntity
  8
0
  6
Continuous
 62
     7
370
    25
100
AcDbLine
 10
65.8999058087
 20
-157.4425265099
 30
0.0
 11
63.1088484502
 21
-153.6433812108
 31
0.0
  0
LINE
  5
D2
330
1F
100
AcDbEntity
  8
0
  6
Continuous
 62
     7
370
    25
100
AcDbLine
 10
63.1088484502
 20
-153.6433812108
 30
0.0
 11
62.336087032
 21
-157.4425265099
 31
0.0
  0
LINE
  5
D3
330
1F
100
AcDbEntity
  8
0
  6
Continuous
 62
     7
370
    25
100
AcDbLine
 10
52.3287736639
 20
-152.1508598432
 30
0.0
 11
55.51734204
 21
-152.1508598432
 31
0.0
  0
LINE
  5
D4
330
1F
100
AcDbEntity
  8
0
  6
Continuous
 62
     7
370
    25
100
AcDbLine
 10
55.51734204
 20
-152.1508598432
 30
0.0
 11
55.51734204
 21
-152.693594886
 31
0.0
  0
LINE
  5
D5
330
1F
100
AcDbEntity
  8
0
  6
Continuous
 62
     7
370
    25
100
AcDbLine
 10
55.51734204
 20
-152.693594886
 30
0.0
 11
52.9245101756
 21
-152.693594886
 31
0.0
  0
LINE
  5
D6
330
1F
100
AcDbEntity
  8
0
  6
Continuous
 62
     7
370
    25
100
AcDbLine
 10
52.9245101756
 20
-152.693594886
 30
0.0
 11
52.4941382472
 21
-154.0917736386
 31
0.0
  0
SPLINE
  5
D7
330
1F
100
AcDbEntity
  8
0
  6
Continuous
 62
     7
370
    25
100
AcDbSpline
210
0.0
220
0.0
230
1.0
 70
     8
 71
     3
 72
    11
 73
     7
 74
     0
 42
0.00000001
 43
0.00000001
 40
0.0
 40
0.0
 40
0.0
 40
0.0
 40
0.2730297183675149
 40
0.5308000034679686
 40
0.772931694539791
 40
0.9999999999999999
 40
0.9999999999999999
 40
0.9999999999999999
 40
0.9999999999999999
 10
52.49413824722954
 20
-154.091773638636
 30
0.0
 10
52.57489854553934
 20
-154.0749895100051
 30
0.0
 10
52.73190550756248
 20
-154.0423593055399
 30
0.0
 10
52.96309713646429
 20
-154.0094349600614
 30
0.0
 10
53.18161642856894
 20
-153.9860301742937
 30
0.0
 10
53.32337795414143
 20
-153.9837123287226
 30
0.0
 10
53.39198313237911
 20
-153.9825906124607
 30
0.0
  0
SPLINE
  5
D8
330
1F
100
AcDbEntity
  8
0
  6
Continuous
 62
     7
370
    25
100
AcDbSpline
210
0.0
220
0.0
230
1.0
 70
     8
 71
     3
 72
    23
 73
    19
 74
     0
 42
0.00000001
 43
0.00000001
 40
0.0
 40
0.0
 40
0.0
 40
0.0
 40
0.0776323292138183
 40
0.1517075387133386
 40
0.2231697472407089
 40
0.2923646528947252
 40
0.3590601337800706
 40
0.4241284202654071
 40
0.4882238542853959
 40
0.5517212396884764
 40
0.6133728761111872
 40
0.6716664162413902
 40
0.7275351699856256
 40
0.7816678174064613
 40
0.8352586098186541
 40
0.8889267310722061
 40
0.9435598186074905
 40
1.0
 40
1.0
 40
1.0
 40
1.0
 10
53.39198313237912
 20
-153.9825906124608
 30
0.0
 10
53.47719832987475
 20
-153.9838382833173
 30
0.0
 10
53.64372415750296
 20
-153.9862764566489
 30
0.0
 10
53.88768956213513
 20
-154.0105204436918
 30
0.0
 10
54.12044298926584
 20
-154.0482410788031
 30
0.0
 10
54.34201515828088
 20
-154.1009599979586
 30
0.0
 10
54.55221220543068
 20
-154.1685852082277
 30
0.0
 10
54.75011981887092
 20
-154.253077407499
 30
0.0
 10
54.9376130760657
 20
-154.3513605221192
 30
0.0
 10
55.11150067859105
 20
-154.46550576799
 30
0.0
 10
55.26954690637546
 20
-154.5905290667464
 30
0.0
 10
55.40945331143966
 20
-154.7240562279586
 30
0.0
 10
55.52514881889096
 20
-154.8685717964908
 30
0.0
 10
55.62239038509101
 20
-155.019960896572
 30
0.0
 10
55.69691999809663
 20
-155.1812809373791
 30
0.0
 10
55.75005141379025
 20
-155.3512044081455
 30
0.0
 10
55.78289368741801
 20
-155.5296748846979
 30
0.0
 10
55.7867500232888
 20
-155.6516425754691
 30
0.0
 10
55.78870956133211
 20
-155.713618590559
 30
0.0
  0
SPLINE
  5
D9
330
1F
100
AcDbEntity
  8
0
  6
Continuous
 62
     7
370
    25
100
AcDbSpline
210
0.0
220
0.0
230
1.0
 70
     8
 71
     3
 72
    31
 73
    27
 74
     0
 42
0.00000001
 43
0.00000001
 40
0.0
 40
0.0
 40
0.0
 40
0.0
 40
0.0354057398570825
 40
0.0705097834212214
 40
0.1052635781662307
 40
0.140293291852873
 40
0.175513311013541
 40
0.2111804998167334
 40
0.2479423947124967
 40
0.2860441764588355
 40
0.3244788271254231
 40
0.3632315570734507
 40
0.4022943959238486
 40
0.4418460138609823
 40
0.4823014251447735
 40
0.5235910139618151
 40
0.5661283756704204
 40
0.6098019572022236
 40
0.654742252130796
 40
0.7003483517145425
 40
0.7469059826372245
 40
0.7947330533022947
 40
0.8439421803158482
 40
0.8946367705226526
 40
0.9466388775150025
 40
1.0
 40
1.0
 40
1.0
 40
1.0
 10
55.78870956133211
 20
-155.7136185905591
 30
0.0
 10
55.78779713603564
 20
-155.7567867524521
 30
0.0
 10
55.78598006032129
 20
-155.8427552354736
 30
0.0
 10
55.76809312163871
 20
-155.9700259218689
 30
0.0
 10
55.74084768614469
 20
-156.0950361948335
 30
0.0
 10
55.7012495858476
 20
-156.216919581703
 30
0.0
 10
55.65127612329001
 20
-156.3360663152891
 30
0.0
 10
55.59038793615072
 20
-156.452440221767
 30
0.0
 10
55.51790740894624
 20
-156.5661538407165
 30
0.0
 10
55.43454925228912
 20
-156.6763554213631
 30
0.0
 10
55.34246646993226
 20
-156.7826194959105
 30
0.0
 10
55.24145614246336
 20
-156.8821271097617
 30
0.0
 10
55.13308227902974
 20
-156.9755927224396
 30
0.0
 10
55.01711074608037
 20
-157.0629918219027
 30
0.0
 10
54.89287313845472
 20
-157.143262770081
 30
0.0
 10
54.76096641342684
 20
-157.2178584321728
 30
0.0
 10
54.62094441215977
 20
-157.285425168526
 30
0.0
 10
54.47332012242498
 20
-157.3467972421708
 30
0.0
 10
54.31929337782184
 20
-157.4021183272951
 30
0.0
 10
54.1585848806757
 20
-157.4480644080918
 30
0.0
 10
53.99290566012421
 20
-157.488905586305
 30
0.0
 10
53.82091003277171
 20
-157.5214973226194
 30
0.0
 10
53.64264068666458
 20
-157.5470377758028
 30
0.0
 10
53.45831111366005
 20
-157.5643280792076
 30
0.0
 10
53.26848993103733
 20
-157.5770434380815
 30
0.0
 10
53.14007167149879
 20
-157.577817996231
 30
0.0
 10
53.07503434765689
 20
-157.5782102705804
 30
0.0
  0
SPLINE
  5
DA
330
1F
100
AcDbEntity
  8
0
  6
Continuous
 62
     7
370
    25
100
AcDbSpline
210
0.0
220
0.0
230
1.0
 70
     8
 71
     3
 72
    23
 73
    19
 74
     0
 42
0.00000001
 43
0.00000001
 40
0.0
 40
0.0
 40
0.0
 40
0.0
 40
0.0763969999534324
 40
0.1499260357826466
 40
0.2211388442919091
 40
0.2897504639918648
 40
0.3567189687038104
 40
0.4225141756047905
 40
0.4866216007345401
 40
0.55037809880548
 40
0.6124844260461197
 40
0.6716436131376927
 40
0.7283586886931321
 40
0.7839082765103008
 40
0.837881258104295
 40
0.8915288260240949
 40
0.9453641989062763
 40
1.0
 40
1.0
 40
1.0
 40
1.0
 10
53.07503434765689
 20
-157.5782102705804
 30
0.0
 10
52.99759757057465
 20
-157.5771793752116
 30
0.0
 10
52.84563101405017
 20
-157.575156284566
 30
0.0
 10
52.62241345257564
 20
-157.5536111508927
 30
0.0
 10
52.40823275502058
 20
-157.5232517774764
 30
0.0
 10
52.20368459077584
 20
-157.4768749531684
 30
0.0
 10
52.00780602123708
 20
-157.4190751506906
 30
0.0
 10
51.82167053638039
 20
-157.3467590541966
 30
0.0
 10
51.64406233946114
 20
-157.2628653897252
 30
0.0
 10
51.47760481970319
 20
-157.1657233583691
 30
0.0
 10
51.3235676141505
 20
-157.05850353786
 30
0.0
 10
51.1848588849548
 20
-156.9428307490269
 30
0.0
 10
51.06288319253709
 20
-156.8187642290739
 30
0.0
 10
50.95680921914981
 20
-156.6875923806992
 30
0.0
 10
50.8663166277623
 20
-156.5487475406272
 30
0.0
 10
50.79453225511683
 20
-156.4014063623094
 30
0.0
 10
50.73707737155392
 20
-156.2470418952315
 30
0.0
 10
50.71279786857837
 20
-156.1397371740324
 30
0.0
 10
50.70056853569108
 20
-156.085688903059
 30
0.0
  0
LINE
  5
DB
330
1F
100
AcDbEntity
  8
0
  6
Continuous
 62
     7
370
    25
100
AcDbLine
 10
50.7005685357
 20
-156.0856889031
 30
0.0
 11
51.4468292195
 21
-156.0856889031
 31
0.0
  0
SPLINE
  5
DC
330
1F
100
AcDbEntity
  8
0
  6
Continuous
 62
     7
370
    25
100
AcDbSpline
210
0.0
220
0.0
230
1.0
 70
     8
 71
     3
 72
    19
 73
    15
 74
     0
 42
0.00000001
 43
0.00000001
 40
0.0
 40
0.0
 40
0.0
 40
0.0
 40
0.0774818457937014
 40
0.1509813001304706
 40
0.2230953002091357
 40
0.294281797765481
 40
0.3678314664532583
 40
0.4459505593849843
 40
0.5302462211983611
 40
0.6201022969347862
 40
0.7140601122959377
 40
0.8082267962652553
 40
0.9033893912188922
 40
1.0
 40
1.0
 40
1.0
 40
1.0
 10
51.44682921945176
 20
-156.085688903059
 30
0.0
 10
51.46344033040064
 20
-156.1364245287796
 30
0.0
 10
51.49580877880275
 20
-156.2352880839229
 30
0.0
 10
51.56736032481911
 20
-156.3719312835791
 30
0.0
 10
51.6547045206885
 20
-156.4933639298462
 30
0.0
 10
51.75818389588147
 20
-156.6016591765639
 30
0.0
 10
51.88032497759857
 20
-156.6951571355041
 30
0.0
 10
52.019578554136
 20
-156.7791082227475
 30
0.0
 10
52.17645532333847
 20
-156.8540717496547
 30
0.0
 10
52.34983032250911
 20
-156.9176471618391
 30
0.0
 10
52.53386836348093
 20
-156.9706363544548
 30
0.0
 10
52.72558066028004
 20
-157.0067489074401
 30
0.0
 10
52.9210294558946
 20
-157.0316756523313
 30
0.0
 10
53.053047930945
 20
-157.0342023432811
 30
0.0
 10
53.11955558163125
 20
-157.0354752278454
 30
0.0
  0
SPLINE
  5
DD
330
1F
100
AcDbEntity
  8
0
  6
Continuous
 62
     7
370
    25
100
AcDbSpline
210
0.0
220
0.0
230
1.0
 70
     8
 71
     3
 72
    23
 73
    19
 74
     0
 42
0.00000001
 43
0.00000001
 40
0.0
 40
0.0
 40
0.0
 40
0.0
 40
0.074856906021766
 40
0.1471466515861979
 40
0.2175849232402396
 40
0.2862021552109343
 40
0.3535656171698235
 40
0.4200801042855183
 40
0.4857206358479285
 40
0.5516356025420921
 40
0.6153324815484703
 40
0.6755325728207837
 40
0.7326070914722136
 40
0.7870373756306777
 40
0.840244002074193
 40
0.8926083376098527
 40
0.945526741326716
 40
1.0
 40
1.0
 40
1.0
 40
1.0
 10
53.11955558163125
 20
-157.0354752278454
 30
0.0
 10
53.18426418832534
 20
-157.0342371335283
 30
0.0
 10
53.31146226943591
 20
-157.0318034043937
 30
0.0
 10
53.49874690587797
 20
-157.0130868916356
 30
0.0
 10
53.6793076511703
 20
-156.9843260551486
 30
0.0
 10
53.85246440800809
 20
-156.9408208138437
 30
0.0
 10
54.01987202739846
 20
-156.8891127918862
 30
0.0
 10
54.17861827297345
 20
-156.8211833560682
 30
0.0
 10
54.3315456289426
 20
-156.7439458829909
 30
0.0
 10
54.47499695589192
 20
-156.6546570336961
 30
0.0
 10
54.60712735856924
 20
-156.557108243668
 30
0.0
 10
54.72357269741559
 20
-156.4522250713644
 30
0.0
 10
54.82181032366553
 20
-156.340517953339
 30
0.0
 10
54.90240012453894
 20
-156.2227507774328
 30
0.0
 10
54.96560692286388
 20
-156.0992641677512
 30
0.0
 10
55.01052687020815
 20
-155.9694685591914
 30
0.0
 10
55.03800543051901
 20
-155.8335036649216
 30
0.0
 10
55.0409535008147
 20
-155.7406015996552
 30
0.0
 10
55.04244887757142
 20
-155.6934780323325
 30
0.0
  0
SPLINE
  5
DE
330
1F
100
AcDbEntity
  8
0
  6
Continuous
 62
     7
370
    25
100
AcDbSpline
210
0.0
220
0.0
230
1.0
 70
     8
 71
     3
 72
    23
 73
    19
 74
     0
 42
0.00000001
 43
0.00000001
 40
0.0
 40
0.0
 40
0.0
 40
0.0
 40
0.0524993126076258
 40
0.1032922534272162
 40
0.1531527867075518
 40
0.2029597311910371
 40
0.2544483065188025
 40
0.3079481758645992
 40
0.3639495696713874
 40
0.4234536991059394
 40
0.4857011764483551
 40
0.5501868096038323
 40
0.6166434461666974
 40
0.6861748294220473
 40
0.7592378086593659
 40
0.8355194863715719
 40
0.9156786168156662
 40
1.0
 40
1.0
 40
1.0
 40
1.0
 10
55.04244887757142
 20
-155.6934780323325
 30
0.0
 10
55.04127523146924
 20
-155.6509439878381
 30
0.0
 10
55.03896608598522
 20
-155.5672583720655
 30
0.0
 10
55.01316185505878
 20
-155.4454644752056
 30
0.0
 10
54.97397687066817
 20
-155.3299687099606
 30
0.0
 10
54.91924279140794
 20
-155.2201225426621
 30
0.0
 10
54.84747559362098
 20
-155.1169888275699
 30
0.0
 10
54.75967325423484
 20
-155.0203960307188
 30
0.0
 10
54.65704734662567
 20
-154.929614068052
 30
0.0
 10
54.53918404191743
 20
-154.8468429716799
 30
0.0
 10
54.40923905001851
 20
-154.77020242315
 30
0.0
 10
54.26692775545257
 20
-154.7049119946239
 30
0.0
 10
54.11412324325983
 20
-154.65024343911
 30
0.0
 10
53.95166759955242
 20
-154.6025517721303
 30
0.0
 10
53.77761735449235
 20
-154.5689542599459
 30
0.0
 10
53.59368423992359
 20
-154.5430905933644
 30
0.0
 10
53.3992849112889
 20
-154.5285068637259
 30
0.0
 10
53.26621593090893
 20
-154.5264037977135
 30
0.0
 10
53.19799775577655
 20
-154.5253256551958
 30
0.0
  0
SPLINE
  5
DF
330
1F
100
AcDbEntity
  8
0
  6
Continuous
 62
     7
370
    25
100
AcDbSpline
210
0.0
220
0.0
230
1.0
 70
     8
 71
     3
 72
    15
 73
    11
 74
     0
 42
0.00000001
 43
0.00000001
 40
0.0
 40
0.0
 40
0.0
 40
0.0
 40
0.1041820338421279
 40
0.214166045416931
 40
0.3295260796692391
 40
0.4510436746399507
 40
0.5788582835632214
 40
0.713089735179169
 40
0.8532380669282938
 40
1.0
 40
1.0
 40
1.0
 40
1.0
 10
53.19799775577655
 20
-154.5253256551958
 30
0.0
 10
53.13861560183899
 20
-154.5261913465166
 30
0.0
 10
53.01654425605955
 20
-154.5279709401747
 30
0.0
 10
52.82911951702015
 20
-154.5413923683769
 30
0.0
 10
52.63254805107037
 20
-154.5627098663752
 30
0.0
 10
52.42681009842134
 20
-154.5926226055346
 30
0.0
 10
52.21155277623603
 20
-154.630957473251
 30
0.0
 10
51.98710808348346
 20
-154.6776860357508
 30
0.0
 10
51.7534641158508
 20
-154.7328450546601
 30
0.0
 10
51.59548265472126
 20
-154.7750859030535
 30
0.0
 10
51.51467109979365
 20
-154.7966931765633
 30
0.0
  0
LINE
  5
E0
330
1F
100
AcDbEntity
  8
0
  6
Continuous
 62
     7
370
    25
100
AcDbLine
 10
51.5146710998
 20
-154.7966931766
 30
0.0
 11
52.3287736639
 21
-152.1508598432
 31
0.0
  0
LINE
  5
E1
330
1F
100
AcDbEntity
  8
0
  6
Continuous
 62
     7
370
    25
100
AcDbLine
 10
92.2633645552
 20
-80.4657709735
 30
0.0
 11
91.5096836657
 21
-80.4657709735
 31
0.0
  0
LINE
  5
E2
330
1F
100
AcDbEntity
  8
0
  6
Continuous
 62
     7
370
    25
100
AcDbLine
 10
91.5096836657
 20
-80.4657709735
 30
0.0
 11
92.5856134868
 21
-75.1741043068
 31
0.0
  0
LINE
  5
E3
330
1F
100
AcDbEntity
  8
0
  6
Continuous
 62
     7
370
    25
100
AcDbLine
 10
92.5856134868
 20
-75.1741043068
 30
0.0
 11
92.7636984227
 21
-75.1741043068
 31
0.0
  0
LINE
  5
E4
330
1F
100
AcDbEntity
  8
0
  6
Continuous
 62
     7
370
    25
100
AcDbLine
 10
92.7636984227
 20
-75.1741043068
 30
0.0
 11
95.9533268281
 21
-79.5159846487
 31
0.0
  0
LINE
  5
E5
330
1F
100
AcDbEntity
  8
0
  6
Continuous
 62
     7
370
    25
100
AcDbLine
 10
95.9533268281
 20
-79.5159846487
 30
0.0
 11
99.1334149692
 21
-75.1741043068
 31
0.0
  0
LINE
  5
E6
330
1F
100
AcDbEntity
  8
0
  6
Continuous
 62
     7
370
    25
100
AcDbLine
 10
99.1334149692
 20
-75.1741043068
 30
0.0
 11
99.3178600813
 21
-75.1741043068
 31
0.0
  0
LINE
  5
E7
330
1F
100
AcDbEntity
  8
0
  6
Continuous
 62
     7
370
    25
100
AcDbLine
 10
99.3178600813
 20
-75.1741043068
 30
0.0
 11
100.3969699905
 21
-80.4657709735
 31
0.0
  0
LINE
  5
E8
330
1F
100
AcDbEntity
  8
0
  6
Continuous
 62
     7
370
    25
100
AcDbLine
 10
100.3969699905
 20
-80.4657709735
 30
0.0
 11
99.6454091599
 21
-80.4657709735
 31
0.0
  0
LINE
  5
E9
330
1F
100
AcDbEntity
  8
0
  6
Continuous
 62
     7
370
    25
100
AcDbLine
 10
99.6454091599
 20
-80.4657709735
 30
0.0
 11
98.8705276828
 21
-76.6666256744
 31
0.0
  0
LINE
  5
EA
330
1F
100
AcDbEntity
  8
0
  6
Continuous
 62
     7
370
    25
100
AcDbLine
 10
98.8705276828
 20
-76.6666256744
 30
0.0
 11
96.0879505594
 21
-80.4657709735
 31
0.0
  0
LINE
  5
EB
330
1F
100
AcDbEntity
  8
0
  6
Continuous
 62
     7
370
    25
100
AcDbLine
 10
96.0879505594
 20
-80.4657709735
 30
0.0
 11
95.8271833319
 21
-80.4657709735
 31
0.0
  0
LINE
  5
EC
330
1F
100
AcDbEntity
  8
0
  6
Continuous
 62
     7
370
    25
100
AcDbLine
 10
95.8271833319
 20
-80.4657709735
 30
0.0
 11
93.0361259734
 21
-76.6666256744
 31
0.0
  0
LINE
  5
ED
330
1F
100
AcDbEntity
  8
0
  6
Continuous
 62
     7
370
    25
100
AcDbLine
 10
93.0361259734
 20
-76.6666256744
 30
0.0
 11
92.2633645552
 21
-80.4657709735
 31
0.0
  0
LINE
  5
EE
330
1F
100
AcDbEntity
  8
0
  6
Continuous
 62
     7
370
    25
100
AcDbLine
 10
82.2560511871
 20
-75.1741043068
 30
0.0
 11
85.4446195632
 21
-75.1741043068
 31
0.0
  0
LINE
  5
EF
330
1F
100
AcDbEntity
  8
0
  6
Continuous
 62
     7
370
    25
100
AcDbLine
 10
85.4446195632
 20
-75.1741043068
 30
0.0
 11
85.4446195632
 21
-75.7168393496
 31
0.0
  0
LINE
  5
F0
330
1F
100
AcDbEntity
  8
0
  6
Continuous
 62
     7
370
    25
100
AcDbLine
 10
85.4446195632
 20
-75.7168393496
 30
0.0
 11
82.8517876989
 21
-75.7168393496
 31
0.0
  0
LINE
  5
F1
330
1F
100
AcDbEntity
  8
0
  6
Continuous
 62
     7
370
    25
100
AcDbLine
 10
82.8517876989
 20
-75.7168393496
 30
0.0
 11
82.4214157704
 21
-77.1150181022
 31
0.0
  0
SPLINE
  5
F2
330
1F
100
AcDbEntity
  8
0
  6
Continuous
 62
     7
370
    25
100
AcDbSpline
210
0.0
220
0.0
230
1.0
 70
     8
 71
     3
 72
    11
 73
     7
 74
     0
 42
0.00000001
 43
0.00000001
 40
0.0
 40
0.0
 40
0.0
 40
0.0
 40
0.2730297183675179
 40
0.5308000034679748
 40
0.7729316945397987
 40
1.0
 40
1.0
 40
1.0
 40
1.0
 10
82.42141577044038
 20
-77.11501810223749
 30
0.0
 10
82.50217606875019
 20
-77.09823397360667
 30
0.0
 10
82.65918303077332
 20
-77.06560376914136
 30
0.0
 10
82.89037465967512
 20
-77.032679423663
 30
0.0
 10
83.10889395177978
 20
-77.00927463789522
 30
0.0
 10
83.2506554773523
 20
-77.00695679232409
 30
0.0
 10
83.31926065558994
 20
-77.00583507606228
 30
0.0
  0
SPLINE
  5
F3
330
1F
100
AcDbEntity
  8
0
  6
Continuous
 62
     7
370
    25
100
AcDbSpline
210
0.0
220
0.0
230
1.0
 70
     8
 71
     3
 72
    23
 73
    19
 74
     0
 42
0.00000001
 43
0.00000001
 40
0.0
 40
0.0
 40
0.0
 40
0.0
 40
0.0776323292138164
 40
0.1517075387133365
 40
0.2231697472407091
 40
0.2923646528947234
 40
0.3590601337800722
 40
0.4241284202654073
 40
0.4882238542853942
 40
0.5517212396884772
 40
0.6133728761111855
 40
0.67166641624139
 40
0.7275351699856301
 40
0.78166781740646
 40
0.8352586098186497
 40
0.8889267310722095
 40
0.9435598186074903
 40
0.9999999999999999
 40
0.9999999999999999
 40
0.9999999999999999
 40
0.9999999999999999
 10
83.31926065558994
 20
-77.00583507606228
 30
0.0
 10
83.4044758530856
 20
-77.00708274691878
 30
0.0
 10
83.57100168071379
 20
-77.00952092025044
 30
0.0
 10
83.81496708534597
 20
-77.0337649072934
 30
0.0
 10
84.04772051247667
 20
-77.07148554240462
 30
0.0
 10
84.2692926814917
 20
-77.12420446156007
 30
0.0
 10
84.47948972864152
 20
-77.19182967182924
 30
0.0
 10
84.67739734208178
 20
-77.27632187110055
 30
0.0
 10
84.86489059927655
 20
-77.37460498572072
 30
0.0
 10
85.03877820180189
 20
-77.48875023159157
 30
0.0
 10
85.19682442958631
 20
-77.61377353034797
 30
0.0
 10
85.33673083465051
 20
-77.74730069156017
 30
0.0
 10
85.45242634210183
 20
-77.89181626009241
 30
0.0
 10
85.5496679083018
 20
-78.04320536017343
 30
0.0
 10
85.62419752130751
 20
-78.20452540098066
 30
0.0
 10
85.67732893700106
 20
-78.37444887174695
 30
0.0
 10
85.71017121062886
 20
-78.55291934829944
 30
0.0
 10
85.71402754649964
 20
-78.67488703907065
 30
0.0
 10
85.71598708454293
 20
-78.73686305416057
 30
0.0
  0
SPLINE
  5
F4
330
1F
100
AcDbEntity
  8
0
  6
Continuous
 62
     7
370
    25
100
AcDbSpline
210
0.0
220
0.0
230
1.0
 70
     8
 71
     3
 72
    31
 73
    27
 74
     0
 42
0.00000001
 43
0.00000001
 40
0.0
 40
0.0
 40
0.0
 40
0.0
 40
0.0354057398570825
 40
0.0705097834212219
 40
0.1052635781662309
 40
0.1402932918528692
 40
0.1755133110135415
 40
0.2111804998167315
 40
0.2479423947124939
 40
0.2860441764588328
 40
0.3244788271254234
 40
0.3632315570734498
 40
0.4022943959238483
 40
0.4418460138609806
 40
0.4823014251447756
 40
0.5235910139618174
 40
0.5661283756704194
 40
0.6098019572022226
 40
0.6547422521307968
 40
0.7003483517145433
 40
0.7469059826372274
 40
0.7947330533022972
 40
0.8439421803158514
 40
0.894636770522654
 40
0.9466388775150043
 40
1.0
 40
1.0
 40
1.0
 40
1.0
 10
85.71598708454293
 20
-78.73686305416057
 30
0.0
 10
85.71507465924645
 20
-78.78003121605356
 30
0.0
 10
85.71325758353213
 20
-78.86599969907508
 30
0.0
 10
85.69537064484956
 20
-78.99327038547048
 30
0.0
 10
85.66812520935552
 20
-79.118280658435
 30
0.0
 10
85.62852710905844
 20
-79.24016404530451
 30
0.0
 10
85.57855364650082
 20
-79.35931077889063
 30
0.0
 10
85.51766545936157
 20
-79.4756846853685
 30
0.0
 10
85.44518493215709
 20
-79.589398304318
 30
0.0
 10
85.36182677549996
 20
-79.6995998849646
 30
0.0
 10
85.26974399314311
 20
-79.805863959512
 30
0.0
 10
85.16873366567421
 20
-79.90537157336323
 30
0.0
 10
85.06035980224055
 20
-79.99883718604109
 30
0.0
 10
84.94438826929122
 20
-80.08623628550421
 30
0.0
 10
84.82015066166554
 20
-80.16650723368251
 30
0.0
 10
84.6882439366377
 20
-80.2411028957743
 30
0.0
 10
84.54822193537059
 20
-80.30866963212752
 30
0.0
 10
84.4005976456358
 20
-80.37004170577231
 30
0.0
 10
84.24657090103267
 20
-80.4253627908966
 30
0.0
 10
84.08586240388655
 20
-80.47130887169332
 30
0.0
 10
83.92018318333498
 20
-80.51215004990644
 30
0.0
 10
83.74818755598257
 20
-80.54474178622095
 30
0.0
 10
83.56991820987544
 20
-80.57028223940435
 30
0.0
 10
83.38558863687086
 20
-80.58757254280913
 30
0.0
 10
83.19576745424818
 20
-80.60028790168298
 30
0.0
 10
83.06734919470964
 20
-80.60106245983256
 30
0.0
 10
83.00231187086773
 20
-80.60145473418194
 30
0.0
  0
SPLINE
  5
F5
330
1F
100
AcDbEntity
  8
0
  6
Continuous
 62
     7
370
    25
100
AcDbSpline
210
0.0
220
0.0
230
1.0
 70
     8
 71
     3
 72
    23
 73
    19
 74
     0
 42
0.00000001
 43
0.00000001
 40
0.0
 40
0.0
 40
0.0
 40
0.0
 40
0.0763969999534367
 40
0.1499260357826505
 40
0.2211388442919134
 40
0.2897504639918667
 40
0.3567189687038134
 40
0.4225141756047911
 40
0.4866216007345404
 40
0.5503780988054778
 40
0.6124844260461199
 40
0.6716436131376926
 40
0.7283586886931303
 40
0.7839082765103015
 40
0.8378812581042955
 40
0.89152882602409
 40
0.9453641989062721
 40
1.0
 40
1.0
 40
1.0
 40
1.0
 10
83.00231187086773
 20
-80.60145473418194
 30
0.0
 10
82.92487509378549
 20
-80.60042383881309
 30
0.0
 10
82.77290853726103
 20
-80.59840074816755
 30
0.0
 10
82.54969097578648
 20
-80.57685561449416
 30
0.0
 10
82.3355102782314
 20
-80.54649624107785
 30
0.0
 10
82.13096211398668
 20
-80.50011941677005
 30
0.0
 10
81.9350835444479
 20
-80.44231961429206
 30
0.0
 10
81.7489480595912
 20
-80.37000351779811
 30
0.0
 10
81.57133986267198
 20
-80.28610985332664
 30
0.0
 10
81.40488234291402
 20
-80.1889678219706
 30
0.0
 10
81.25084513736135
 20
-80.08174800146158
 30
0.0
 10
81.11213640816563
 20
-79.96607521262834
 30
0.0
 10
80.99016071574795
 20
-79.84200869267544
 30
0.0
 10
80.88408674236061
 20
-79.71083684430069
 30
0.0
 10
80.7935941509731
 20
-79.57199200422875
 30
0.0
 10
80.72180977832768
 20
-79.42465082591092
 30
0.0
 10
80.66435489476473
 20
-79.27028635883302
 30
0.0
 10
80.6400753917892
 20
-79.16298163763393
 30
0.0
 10
80.62784605890191
 20
-79.10893336666057
 30
0.0
  0
LINE
  5
F6
330
1F
100
AcDbEntity
  8
0
  6
Continuous
 62
     7
370
    25
100
AcDbLine
 10
80.6278460589
 20
-79.1089333667
 30
0.0
 11
81.3741067427
 21
-79.1089333667
 31
0.0
  0
SPLINE
  5
F7
330
1F
100
AcDbEntity
  8
0
  6
Continuous
 62
     7
370
    25
100
AcDbSpline
210
0.0
220
0.0
230
1.0
 70
     8
 71
     3
 72
    19
 73
    15
 74
     0
 42
0.00000001
 43
0.00000001
 40
0.0
 40
0.0
 40
0.0
 40
0.0
 40
0.0774818457936959
 40
0.1509813001304678
 40
0.2230953002091326
 40
0.29428179776548
 40
0.3678314664532502
 40
0.4459505593849858
 40
0.5302462211983594
 40
0.6201022969347844
 40
0.7140601122959322
 40
0.8082267962652548
 40
0.9033893912188888
 40
1.0
 40
1.0
 40
1.0
 40
1.0
 10
81.3741067426626
 20
-79.10893336666057
 30
0.0
 10
81.39071785361148
 20
-79.15966899238114
 30
0.0
 10
81.42308630201362
 20
-79.2585325475244
 30
0.0
 10
81.49463784802992
 20
-79.39517574718056
 30
0.0
 10
81.58198204389936
 20
-79.51660839344783
 30
0.0
 10
81.68546141909228
 20
-79.62490364016536
 30
0.0
 10
81.80760250080938
 20
-79.71840159910558
 30
0.0
 10
81.94685607734682
 20
-79.80235268634904
 30
0.0
 10
82.1037328465493
 20
-79.87731621325612
 30
0.0
 10
82.27710784571993
 20
-79.94089162544056
 30
0.0
 10
82.4611458866918
 20
-79.9938808180564
 30
0.0
 10
82.65285818349088
 20
-80.02999337104161
 30
0.0
 10
82.84830697910543
 20
-80.05492011593282
 30
0.0
 10
82.98032545415586
 20
-80.05744680688268
 30
0.0
 10
83.0468331048421
 20
-80.0587196914469
 30
0.0
  0
SPLINE
  5
F8
330
1F
100
AcDbEntity
  8
0
  6
Continuous
 62
     7
370
    25
100
AcDbSpline
210
0.0
220
0.0
230
1.0
 70
     8
 71
     3
 72
    23
 73
    19
 74
     0
 42
0.00000001
 43
0.00000001
 40
0.0
 40
0.0
 40
0.0
 40
0.0
 40
0.0748569060217635
 40
0.1471466515861957
 40
0.2175849232402385
 40
0.2862021552109335
 40
0.3535656171698203
 40
0.4200801042855157
 40
0.4857206358479286
 40
0.5516356025420897
 40
0.6153324815484681
 40
0.6755325728207853
 40
0.732607091472213
 40
0.7870373756306728
 40
0.840244002074187
 40
0.8926083376098569
 40
0.9455267413267103
 40
1.0
 40
1.0
 40
1.0
 40
1.0
 10
83.0468331048421
 20
-80.0587196914469
 30
0.0
 10
83.11154171153618
 20
-80.05748159712978
 30
0.0
 10
83.23873979264674
 20
-80.05504786799523
 30
0.0
 10
83.4260244290888
 20
-80.03633135523714
 30
0.0
 10
83.60658517438114
 20
-80.00757051875011
 30
0.0
 10
83.77974193121898
 20
-79.9640652774453
 30
0.0
 10
83.94714955060927
 20
-79.91235725548769
 30
0.0
 10
84.10589579618431
 20
-79.84442781966982
 30
0.0
 10
84.25882315215343
 20
-79.76719034659237
 30
0.0
 10
84.40227447910276
 20
-79.67790149729761
 30
0.0
 10
84.53440488178008
 20
-79.58035270726954
 30
0.0
 10
84.6508502206264
 20
-79.47546953496587
 30
0.0
 10
84.74908784687642
 20
-79.36376241694063
 30
0.0
 10
84.82967764774969
 20
-79.24599524103421
 30
0.0
 10
84.89288444607475
 20
-79.1225086313528
 30
0.0
 10
84.93780439341896
 20
-78.99271302279291
 30
0.0
 10
84.96528295372985
 20
-78.85674812852305
 30
0.0
 10
84.96823102402553
 20
-78.76384606325675
 30
0.0
 10
84.96972640078226
 20
-78.71672249593408
 30
0.0
  0
SPLINE
  5
F9
330
1F
100
AcDbEntity
  8
0
  6
Continuous
 62
     7
370
    25
100
AcDbSpline
210
0.0
220
0.0
230
1.0
 70
     8
 71
     3
 72
    23
 73
    19
 74
     0
 42
0.00000001
 43
0.00000001
 40
0.0
 40
0.0
 40
0.0
 40
0.0
 40
0.0524993126076257
 40
0.1032922534272217
 40
0.1531527867075465
 40
0.2029597311910433
 40
0.2544483065188053
 40
0.3079481758645935
 40
0.3639495696713897
 40
0.4234536991059384
 40
0.485701176448352
 40
0.5501868096038341
 40
0.6166434461666973
 40
0.6861748294220499
 40
0.7592378086593683
 40
0.8355194863715723
 40
0.9156786168156632
 40
1.0
 40
1.0
 40
1.0
 40
1.0
 10
84.96972640078226
 20
-78.71672249593408
 30
0.0
 10
84.96855275468008
 20
-78.6741884514396
 30
0.0
 10
84.96624360919606
 20
-78.590502835667
 30
0.0
 10
84.9404393782696
 20
-78.46870893880708
 30
0.0
 10
84.90125439387904
 20
-78.35321317356218
 30
0.0
 10
84.84652031461877
 20
-78.24336700626363
 30
0.0
 10
84.77475311683186
 20
-78.14023329117147
 30
0.0
 10
84.68695077744573
 20
-78.04364049432037
 30
0.0
 10
84.58432486983644
 20
-77.95285853165349
 30
0.0
 10
84.46646156512833
 20
-77.87008743528153
 30
0.0
 10
84.3365165732293
 20
-77.79344688675148
 30
0.0
 10
84.19420527866342
 20
-77.72815645822541
 30
0.0
 10
84.0414007664707
 20
-77.67348790271151
 30
0.0
 10
83.87894512276324
 20
-77.62579623573181
 30
0.0
 10
83.7048948777032
 20
-77.59219872354748
 30
0.0
 10
83.52096176313441
 20
-77.5663350569658
 30
0.0
 10
83.32656243449973
 20
-77.55175132732741
 30
0.0
 10
83.19349345411977
 20
-77.54964826131508
 30
0.0
 10
83.12527527898739
 20
-77.54857011879731
 30
0.0
  0
SPLINE
  5
FA
330
1F
100
AcDbEntity
  8
0
  6
Continuous
 62
     7
370
    25
100
AcDbSpline
210
0.0
220
0.0
230
1.0
 70
     8
 71
     3
 72
    15
 73
    11
 74
     0
 42
0.00000001
 43
0.00000001
 40
0.0
 40
0.0
 40
0.0
 40
0.0
 40
0.1041820338421277
 40
0.2141660454169317
 40
0.3295260796692386
 40
0.45104367463995
 40
0.5788582835632219
 40
0.7130897351791714
 40
0.8532380669282921
 40
1.0
 40
1.0
 40
1.0
 40
1.0
 10
83.12527527898739
 20
-77.54857011879731
 30
0.0
 10
83.06589312504984
 20
-77.54943581011808
 30
0.0
 10
82.94382177927038
 20
-77.55121540377624
 30
0.0
 10
82.75639704023102
 20
-77.5646368319784
 30
0.0
 10
82.55982557428118
 20
-77.58595432997676
 30
0.0
 10
82.35408762163217
 20
-77.61586706913613
 30
0.0
 10
82.13883029944691
 20
-77.65420193685259
 30
0.0
 10
81.91438560669425
 20
-77.70093049935228
 30
0.0
 10
81.68074163906164
 20
-77.75608951826169
 30
0.0
 10
81.5227601779321
 20
-77.79833036665494
 30
0.0
 10
81.44194862300448
 20
-77.81993764016484
 30
0.0
  0
LINE
  5
FB
330
1F
100
AcDbEntity
  8
0
  6
Continuous
 62
     7
370
    25
100
AcDbLine
 10
81.441948623
 20
-77.8199376402
 30
0.0
 11
82.2560511871
 21
-75.1741043068
 31
0.0
  0
MTEXT
  5
FD
330
1F
100
AcDbEntity
  8
0
  6
Continuous
 62
     7
100
AcDbMText
 10
-254.0
 20
-216.9195663917
 30
0.0
 40
4.83362
 41
0.0
 71
     1
 72
     1
  1
SOLIDWORKS Educational Product.
  7
SLDTEXTSTYLE0
 73
     1
 44
1.0
  0
MTEXT
  5
FE
330
1F
100
AcDbEntity
  8
0
  6
Continuous
 62
     7
100
AcDbMText
 10
-254.0
 20
-224.1699963917
 30
0.0
 40
4.83362
 41
0.0
 71
     1
 72
     1
  1
For Instructional Use Only.
  7
SLDTEXTSTYLE0
 73
     1
 44
1.0
  0
ENDSEC
  0
SECTION
  2
OBJECTS
  0
DICTIONARY
  5
C
330
0
100
AcDbDictionary
281
     1
  3
ACAD_GROUP
350
D
  3
ACAD_LAYOUT
350
1A
  3
ACAD_MLINESTYLE
350
17
  3
ACAD_PLOTSETTINGS
350
19
  3
ACAD_PLOTSTYLENAME
350
E
  3
ACAD_SCALELIST
350
47
  3
DWGPROPS
350
FF
  0
DICTIONARY
  5
D
102
{ACAD_REACTORS
330
C
102
}
330
C
100
AcDbDictionary
281
     1
  0
DICTIONARY
  5
1A
102
{ACAD_REACTORS
330
C
102
}
330
C
100
AcDbDictionary
281
     1
  3
Layout1
350
1E
  3
Layout2
350
26
  3
Model
350
22
  0
DICTIONARY
  5
17
102
{ACAD_REACTORS
330
C
102
}
330
C
100
AcDbDictionary
281
     1
  3
Standard
350
18
  0
DICTIONARY
  5
19
102
{ACAD_REACTORS
330
C
102
}
330
C
100
AcDbDictionary
281
     1
  0
ACDBDICTIONARYWDFLT
  5
E
102
{ACAD_REACTORS
330
C
102
}
330
C
100
AcDbDictionary
281
     1
  3
Normal
350
F
100
AcDbDictionaryWithDefault
340
F
  0
DICTIONARY
  5
47
102
{ACAD_REACTORS
330
C
102
}
330
C
100
AcDbDictionary
281
     1
  3
A0
350
48
  3
A1
350
49
  3
A2
350
4A
  3
A3
350
4B
  3
A4
350
4C
  3
A5
350
4D
  3
A6
350
4E
  3
A7
350
4F
  3
A8
350
50
  3
A9
350
51
  3
B0
350
52
  3
B1
350
53
  3
B2
350
54
  3
B3
350
55
  3
B4
350
56
  3
B5
350
57
  3
B6
350
58
  3
B7
350
59
  3
B8
350
5A
  3
B9
350
5B
  3
C0
350
5C
  3
C1
350
5D
  3
C2
350
5E
  3
C3
350
5F
  3
C4
350
60
  3
C5
350
61
  3
C6
350
62
  3
C7
350
63
  3
C8
350
64
  3
C9
350
65
  3
D0
350
66
  3
D1
350
67
  3
D2
350
68
  0
XRECORD
  5
FF
102
{ACAD_REACTORS
330
C
102
}
330
C
100
AcDbXrecord
280
     1
  1
DWGPROPS COOKIE
  2

  3

  4

  6

  7

  8
Chris Pacheco
  9

300
=
301
=
302
=
303
=
304
=
305
=
306
=
307
=
308
=
309
=
 40
0.0
 41
2459627.617448588
 42
2459627.617524977
  1

 90
        0
  0
LAYOUT
  5
1E
102
{ACAD_REACTORS
330
1A
102
}
330
1A
100
AcDbPlotSettings
  1

  2
none_device
  4

  6

 40
0.0
 41
0.0
 42
0.0
 43
0.0
 44
0.0
 45
0.0
 46
0.0
 47
0.0
 48
0.0
 49
0.0
140
0.0
141
0.0
142
1.0
143
1.0
 70
   688
 72
     1
 73
     0
 74
     5
  7

 75
    16
147
1.0
148
0.0
149
0.0
100
AcDbLayout
  1
Layout1
 70
     1
 71
     1
 10
0.0
 20
0.0
 11
420.0
 21
297.0
 12
0.0
 22
0.0
 32
0.0
 14
1.0000000000E+20
 24
1.0000000000E+20
 34
1.0000000000E+20
 15
-1.0000000000E+20
 25
-1.0000000000E+20
 35
-1.0000000000E+20
146
0.0
 13
0.0
 23
0.0
 33
0.0
 16
1.0
 26
0.0
 36
0.0
 17
0.0
 27
1.0
 37
0.0
 76
     0
330
1B
  0
LAYOUT
  5
26
102
{ACAD_REACTORS
330
1A
102
}
330
1A
100
AcDbPlotSettings
  1

  2
none_device
  4

  6

 40
0.0
 41
0.0
 42
0.0
 43
0.0
 44
0.0
 45
0.0
 46
0.0
 47
0.0
 48
0.0
 49
0.0
140
0.0
141
0.0
142
1.0
143
1.0
 70
   688
 72
     1
 73
     0
 74
     5
  7

 75
    16
147
1.0
148
0.0
149
0.0
100
AcDbLayout
  1
Layout2
 70
     1
 71
     2
 10
0.0
 20
0.0
 11
0.0
 21
0.0
 12
0.0
 22
0.0
 32
0.0
 14
0.0
 24
0.0
 34
0.0
 15
0.0
 25
0.0
 35
0.0
146
0.0
 13
0.0
 23
0.0
 33
0.0
 16
1.0
 26
0.0
 36
0.0
 17
0.0
 27
1.0
 37
0.0
 76
     0
330
23
  0
LAYOUT
  5
22
102
{ACAD_REACTORS
330
1A
102
}
330
1A
100
AcDbPlotSettings
  1

  2
none_device
  4
ANSI_A_(11.00_x_8.50_Inches)
  6

 40
6.35
 41
19.05
 42
6.35000508
 43
19.05000254
 44
279.4
 45
215.9
 46
133.34999746
 47
88.89999873
 48
0.0
 49
0.0
140
0.0
141
0.0
142
0.019488189
143
1.0
 70
  1696
 72
     0
 73
     0
 74
     0
  7

 75
     0
147
0.0179189148
148
-1300.4909072572
149
0.0
100
AcDbLayout
  1
Model
 70
     1
 71
     0
 10
0.0
 20
0.0
 11
420.0
 21
297.0
 12
0.0
 22
0.0
 32
0.0
 14
-254.0
 24
-215.9
 34
0.0
 15
254.0
 25
215.9
 35
0.0
146
0.0
 13
0.0
 23
0.0
 33
0.0
 16
1.0
 26
0.0
 36
0.0
 17
0.0
 27
1.0
 37
0.0
 76
     0
330
1F
331
29
  0
MLINESTYLE
  5
18
102
{ACAD_REACTORS
330
17
102
}
330
17
100
AcDbMlineStyle
  2
Standard
 70
     0
  3

 62
   256
 51
90.0
 52
90.0
 71
     2
 49
0.5
 62
   256
  6
BYLAYER
 49
-0.5
 62
   256
  6
BYLAYER
  0
ACDBPLACEHOLDER
  5
F
102
{ACAD_REACTORS
330
E
102
}
330
E
  0
SCALE
  5
48
102
{ACAD_REACTORS
330
47
102
}
330
47
100
AcDbScale
 70
     0
300
1:1
140
1.0
141
1.0
290
     1
  0
SCALE
  5
49
102
{ACAD_REACTORS
330
47
102
}
330
47
100
AcDbScale
 70
     0
300
1:2
140
1.0
141
2.0
290
     0
  0
SCALE
  5
4A
102
{ACAD_REACTORS
330
47
102
}
330
47
100
AcDbScale
 70
     0
300
1:4
140
1.0
141
4.0
290
     0
  0
SCALE
  5
4B
102
{ACAD_REACTORS
330
47
102
}
330
47
100
AcDbScale
 70
     0
300
1:5
140
1.0
141
5.0
290
     0
  0
SCALE
  5
4C
102
{ACAD_REACTORS
330
47
102
}
330
47
100
AcDbScale
 70
     0
300
1:8
140
1.0
141
8.0
290
     0
  0
SCALE
  5
4D
102
{ACAD_REACTORS
330
47
102
}
330
47
100
AcDbScale
 70
     0
300
1:10
140
1.0
141
10.0
290
     0
  0
SCALE
  5
4E
102
{ACAD_REACTORS
330
47
102
}
330
47
100
AcDbScale
 70
     0
300
1:16
140
1.0
141
16.0
290
     0
  0
SCALE
  5
4F
102
{ACAD_REACTORS
330
47
102
}
330
47
100
AcDbScale
 70
     0
300
1:20
140
1.0
141
20.0
290
     0
  0
SCALE
  5
50
102
{ACAD_REACTORS
330
47
102
}
330
47
100
AcDbScale
 70
     0
300
1:30
140
1.0
141
30.0
290
     0
  0
SCALE
  5
51
102
{ACAD_REACTORS
330
47
102
}
330
47
100
AcDbScale
 70
     0
300
1:40
140
1.0
141
40.0
290
     0
  0
SCALE
  5
52
102
{ACAD_REACTORS
330
47
102
}
330
47
100
AcDbScale
 70
     0
300
1:50
140
1.0
141
50.0
290
     0
  0
SCALE
  5
53
102
{ACAD_REACTORS
330
47
102
}
330
47
100
AcDbScale
 70
     0
300
1:100
140
1.0
141
100.0
290
     0
  0
SCALE
  5
54
102
{ACAD_REACTORS
330
47
102
}
330
47
100
AcDbScale
 70
     0
300
2:1
140
2.0
141
1.0
290
     0
  0
SCALE
  5
55
102
{ACAD_REACTORS
330
47
102
}
330
47
100
AcDbScale
 70
     0
300
4:1
140
4.0
141
1.0
290
     0
  0
SCALE
  5
56
102
{ACAD_REACTORS
330
47
102
}
330
47
100
AcDbScale
 70
     0
300
8:1
140
8.0
141
1.0
290
     0
  0
SCALE
  5
57
102
{ACAD_REACTORS
330
47
102
}
330
47
100
AcDbScale
 70
     0
300
10:1
140
10.0
141
1.0
290
     0
  0
SCALE
  5
58
102
{ACAD_REACTORS
330
47
102
}
330
47
100
AcDbScale
 70
     0
300
100:1
140
100.0
141
1.0
290
     0
  0
SCALE
  5
59
102
{ACAD_REACTORS
330
47
102
}
330
47
100
AcDbScale
 70
     0
300
1/128" = 1'-0"
140
0.0078125
141
12.0
290
     0
  0
SCALE
  5
5A
102
{ACAD_REACTORS
330
47
102
}
330
47
100
AcDbScale
 70
     0
300
1/64" = 1'-0"
140
0.015625
141
12.0
290
     0
  0
SCALE
  5
5B
102
{ACAD_REACTORS
330
47
102
}
330
47
100
AcDbScale
 70
     0
300
1/32" = 1'-0"
140
0.03125
141
12.0
290
     0
  0
SCALE
  5
5C
102
{ACAD_REACTORS
330
47
102
}
330
47
100
AcDbScale
 70
     0
300
1/16" = 1'-0"
140
0.0625
141
12.0
290
     0
  0
SCALE
  5
5D
102
{ACAD_REACTORS
330
47
102
}
330
47
100
AcDbScale
 70
     0
300
3/32" = 1'-0"
140
0.09375
141
12.0
290
     0
  0
SCALE
  5
5E
102
{ACAD_REACTORS
330
47
102
}
330
47
100
AcDbScale
 70
     0
300
1/8" = 1'-0"
140
0.125
141
12.0
290
     0
  0
SCALE
  5
5F
102
{ACAD_REACTORS
330
47
102
}
330
47
100
AcDbScale
 70
     0
300
3/16" = 1'-0"
140
0.1875
141
12.0
290
     0
  0
SCALE
  5
60
102
{ACAD_REACTORS
330
47
102
}
330
47
100
AcDbScale
 70
     0
300
1/4" = 1'-0"
140
0.25
141
12.0
290
     0
  0
SCALE
  5
61
102
{ACAD_REACTORS
330
47
102
}
330
47
100
AcDbScale
 70
     0
300
3/8" = 1'-0"
140
0.375
141
12.0
290
     0
  0
SCALE
  5
62
102
{ACAD_REACTORS
330
47
102
}
330
47
100
AcDbScale
 70
     0
300
1/2" = 1'-0"
140
0.5
141
12.0
290
     0
  0
SCALE
  5
63
102
{ACAD_REACTORS
330
47
102
}
330
47
100
AcDbScale
 70
     0
300
3/4" = 1'-0"
140
0.75
141
12.0
290
     0
  0
SCALE
  5
64
102
{ACAD_REACTORS
330
47
102
}
330
47
100
AcDbScale
 70
     0
300
1" = 1'-0"
140
1.0
141
12.0
290
     0
  0
SCALE
  5
65
102
{ACAD_REACTORS
330
47
102
}
330
47
100
AcDbScale
 70
     0
300
1-1/2" = 1'-0"
140
1.5
141
12.0
290
     0
  0
SCALE
  5
66
102
{ACAD_REACTORS
330
47
102
}
330
47
100
AcDbScale
 70
     0
300
3" = 1'-0"
140
3.0
141
12.0
290
     0
  0
SCALE
  5
67
102
{ACAD_REACTORS
330
47
102
}
330
47
100
AcDbScale
 70
     0
300
6" = 1'-0"
140
6.0
141
12.0
290
     0
  0
SCALE
  5
68
102
{ACAD_REACTORS
330
47
102
}
330
47
100
AcDbScale
 70
     0
300
1'-0" = 1'-0"
140
12.0
141
12.0
290
     0
  0
ENDSEC
  0
EOF
